<?xml version="1.0" encoding="UTF-8" standalone="no"?>
<!DOCTYPE svg PUBLIC "-//W3C//DTD SVG 1.1//EN"
 "http://www.w3.org/Graphics/SVG/1.1/DTD/svg11.dtd">
<!-- Generated by graphviz version 2.47.1 (20210417.1919)
 -->
<!-- Pages: 1 -->
<svg width="202pt" height="288pt"
 viewBox="0.00 0.00 201.60 288.00" xmlns="http://www.w3.org/2000/svg" xmlns:xlink="http://www.w3.org/1999/xlink">
<g id="graph0" class="graph" transform="scale(0.99 0.99) rotate(0) translate(4 286)">
<!-- 20 -->
<g id="node1" class="node">
<title>20</title>
</g>
<!-- 3 -->
<g id="node2" class="node">
<title>3</title>
<text text-anchor="middle" x="138" y="-270.8" font-family="Times,serif" font-size="14.00">\(l\)</text>
</g>
<!-- 4 -->
<g id="node3" class="node">
<title>4</title>
<text text-anchor="middle" x="109" y="-209.3" font-family="Times,serif" font-size="14.00">\(a\)</text>
</g>
<!-- 3&#45;&#45;4 -->
<g id="edge1" class="edge">
<title>3&#45;&#45;4</title>
<path fill="none" stroke="black" d="M134.67,-266.67C129.08,-255.2 117.86,-232.17 112.29,-220.75"/>
</g>
<!-- 10 -->
<g id="node7" class="node">
<title>10</title>
</g>
<!-- 3&#45;&#45;10 -->
<g id="edge5" class="edge">
<title>3&#45;&#45;10</title>
<path fill="none" stroke="lightgreen" d="M141.44,-266.67C145.78,-258.07 153.4,-242.96 159.36,-231.13"/>
</g>
<!-- 5 -->
<g id="node4" class="node">
<title>5</title>
<text text-anchor="middle" x="86" y="-147.8" font-family="Times,serif" font-size="14.00">\(s\)</text>
</g>
<!-- 4&#45;&#45;5 -->
<g id="edge2" class="edge">
<title>4&#45;&#45;5</title>
<path fill="none" stroke="black" d="M106.36,-205.17C101.92,-193.7 93.02,-170.67 88.61,-159.25"/>
</g>
<!-- 7 -->
<g id="node6" class="node">
<title>7</title>
<text text-anchor="middle" x="138" y="-147.8" font-family="Times,serif" font-size="14.00">\(o\)</text>
</g>
<!-- 4&#45;&#45;7 -->
<g id="edge4" class="edge">
<title>4&#45;&#45;7</title>
<path fill="none" stroke="black" d="M112.33,-205.17C117.92,-193.7 129.14,-170.67 134.71,-159.25"/>
</g>
<!-- 5&#45;&#45;20 -->
<g id="edge6" class="edge">
<title>5&#45;&#45;20</title>
<path fill="none" stroke="lightgreen" d="M79.23,-143.67C70.7,-135.07 55.72,-119.96 43.98,-108.13"/>
</g>
<!-- 6 -->
<g id="node5" class="node">
<title>6</title>
<text text-anchor="middle" x="86" y="-86.3" font-family="Times,serif" font-size="14.00">\(o\)</text>
</g>
<!-- 5&#45;&#45;6 -->
<g id="edge3" class="edge">
<title>5&#45;&#45;6</title>
<path fill="none" stroke="black" d="M86,-143.67C86,-132.2 86,-109.17 86,-97.75"/>
</g>
<!-- 11 -->
<g id="node8" class="node">
<title>11</title>
</g>
<!-- 6&#45;&#45;11 -->
<g id="edge7" class="edge">
<title>6&#45;&#45;11</title>
<path fill="none" stroke="lightgreen" d="M82.55,-82.29C77.13,-71.75 66.45,-50.99 58.8,-36.12"/>
</g>
<!-- 12 -->
<g id="node9" class="node">
<title>12</title>
</g>
<!-- 6&#45;&#45;12 -->
<g id="edge8" class="edge">
<title>6&#45;&#45;12</title>
<path fill="none" stroke="lightgreen" d="M89.45,-82.29C94.87,-71.75 105.55,-50.99 113.2,-36.12"/>
</g>
<!-- 13 -->
<g id="node10" class="node">
<title>13</title>
</g>
<!-- 7&#45;&#45;13 -->
<g id="edge9" class="edge">
<title>7&#45;&#45;13</title>
<path fill="none" stroke="lightgreen" d="M138.8,-143.67C139.82,-135.07 141.59,-119.96 142.98,-108.13"/>
</g>
</g>
</svg>
