<?xml version="1.0" encoding="UTF-8" standalone="no"?>
<!DOCTYPE svg PUBLIC "-//W3C//DTD SVG 1.1//EN"
 "http://www.w3.org/Graphics/SVG/1.1/DTD/svg11.dtd">
<!-- Generated by graphviz version 2.47.1 (20210417.1919)
 -->
<!-- Pages: 1 -->
<svg width="288pt" height="222pt"
 viewBox="0.00 0.00 288.00 221.54" xmlns="http://www.w3.org/2000/svg" xmlns:xlink="http://www.w3.org/1999/xlink">
<g id="graph0" class="graph" transform="scale(0.85 0.85) rotate(0) translate(4 256)">
<polygon fill="white" stroke="transparent" points="-4,4 -4,-256 334,-256 334,4 -4,4"/>
<!-- r -->
<g id="node1" class="node">
<title>r</title>
</g>
<!-- 1 -->
<g id="node2" class="node">
<title>1</title>
<text text-anchor="middle" x="150" y="-158.3" font-family="Times,serif" font-size="14.00">\(1\)</text>
</g>
<!-- r&#45;&#45;1 -->
<g id="edge2" class="edge">
<title>r&#45;&#45;1</title>
<path fill="none" stroke="black" stroke-dasharray="5,2" d="M177.1,-215.7C171.52,-204.85 164.36,-190.92 158.8,-180.1"/>
</g>
<!-- rr -->
<g id="node9" class="node">
<title>rr</title>
</g>
<!-- r&#45;&#45;rr -->
<!-- t -->
<g id="node3" class="node">
<title>t</title>
<text text-anchor="middle" x="99" y="-86.3" font-family="Times,serif" font-size="14.00">\(t&#39;\)</text>
</g>
<!-- 1&#45;&#45;t -->
<g id="edge6" class="edge">
<title>1&#45;&#45;t</title>
<path fill="none" stroke="black" d="M137.39,-143.7C129.49,-132.85 119.34,-118.92 111.46,-108.1"/>
</g>
<!-- 2 -->
<g id="node6" class="node">
<title>2</title>
<text text-anchor="middle" x="201" y="-86.3" font-family="Times,serif" font-size="14.00">\(1\)</text>
</g>
<!-- 1&#45;&#45;2 -->
<g id="edge3" class="edge">
<title>1&#45;&#45;2</title>
<path fill="none" stroke="black" d="M162.61,-143.7C170.51,-132.85 180.66,-118.92 188.54,-108.1"/>
</g>
<!-- tl -->
<g id="node4" class="node">
<title>tl</title>
</g>
<!-- t&#45;&#45;tl -->
<g id="edge7" class="edge">
<title>t&#45;&#45;tl</title>
<path fill="none" stroke="black" stroke-dasharray="5,2" d="M81.2,-71.7C70.04,-60.85 55.71,-46.92 44.59,-36.1"/>
</g>
<!-- tr -->
<g id="node5" class="node">
<title>tr</title>
</g>
<!-- t&#45;&#45;tr -->
<g id="edge8" class="edge">
<title>t&#45;&#45;tr</title>
<path fill="none" stroke="black" stroke-dasharray="5,2" d="M99,-71.7C99,-60.85 99,-46.92 99,-36.1"/>
</g>
<!-- n -->
<g id="node7" class="node">
<title>n</title>
<text text-anchor="middle" x="201" y="-14.3" font-family="Times,serif" font-size="14.00">\(\pointed{}\)</text>
</g>
<!-- 2&#45;&#45;n -->
<g id="edge5" class="edge">
<title>2&#45;&#45;n</title>
<path fill="none" stroke="black" d="M201,-71.7C201,-60.85 201,-46.92 201,-36.1"/>
</g>
<!-- s -->
<g id="node8" class="node">
<title>s</title>
<text text-anchor="middle" x="303" y="-14.3" font-family="Times,serif" font-size="14.00">\(s\)</text>
</g>
<!-- 2&#45;&#45;s -->
<g id="edge4" class="edge">
<title>2&#45;&#45;s</title>
<path fill="none" stroke="black" d="M225.95,-71.88C241.76,-61.03 262.13,-47.05 277.95,-36.19"/>
</g>
</g>
</svg>
