<?xml version="1.0" encoding="UTF-8" standalone="no"?>
<!DOCTYPE svg PUBLIC "-//W3C//DTD SVG 1.1//EN"
 "http://www.w3.org/Graphics/SVG/1.1/DTD/svg11.dtd">
<!-- Generated by graphviz version 2.47.1 (20210417.1919)
 -->
<!-- Pages: 1 -->
<svg width="288pt" height="255pt"
 viewBox="0.00 0.00 288.00 254.69" xmlns="http://www.w3.org/2000/svg" xmlns:xlink="http://www.w3.org/1999/xlink">
<g id="graph0" class="graph" transform="scale(0.98 0.98) rotate(0) translate(4 256)">
<polygon fill="white" stroke="transparent" points="-4,4 -4,-256 290,-256 290,4 -4,4"/>
<!-- r -->
<g id="node1" class="node">
<title>r</title>
</g>
<!-- 1 -->
<g id="node2" class="node">
<title>1</title>
<text text-anchor="middle" x="142" y="-158.3" font-family="Times,serif" font-size="14.00">\(1\)</text>
</g>
<!-- r&#45;&#45;1 -->
<g id="edge2" class="edge">
<title>r&#45;&#45;1</title>
<path fill="none" stroke="black" stroke-dasharray="5,2" d="M169.1,-215.7C163.52,-204.85 156.36,-190.92 150.8,-180.1"/>
</g>
<!-- rr -->
<g id="node7" class="node">
<title>rr</title>
</g>
<!-- r&#45;&#45;rr -->
<!-- s -->
<g id="node3" class="node">
<title>s</title>
<text text-anchor="middle" x="90" y="-86.3" font-family="Times,serif" font-size="14.00">\(\pointed{s}\)</text>
</g>
<!-- 1&#45;&#45;s -->
<g id="edge3" class="edge">
<title>1&#45;&#45;s</title>
<path fill="none" stroke="black" d="M129.15,-143.7C121.09,-132.85 110.74,-118.92 102.71,-108.1"/>
</g>
<!-- t -->
<g id="node4" class="node">
<title>t</title>
<text text-anchor="middle" x="195" y="-86.3" font-family="Times,serif" font-size="14.00">\(t&#39;\)</text>
</g>
<!-- 1&#45;&#45;t -->
<g id="edge4" class="edge">
<title>1&#45;&#45;t</title>
<path fill="none" stroke="black" d="M155.1,-143.7C163.32,-132.85 173.86,-118.92 182.05,-108.1"/>
</g>
<!-- sl -->
<g id="node8" class="node">
<title>sl</title>
</g>
<!-- s&#45;&#45;sl -->
<g id="edge7" class="edge">
<title>s&#45;&#45;sl</title>
<path fill="none" stroke="black" d="M74.43,-71.7C64.66,-60.85 52.13,-46.92 42.39,-36.1"/>
</g>
<!-- sr -->
<g id="node9" class="node">
<title>sr</title>
</g>
<!-- s&#45;&#45;sr -->
<g id="edge8" class="edge">
<title>s&#45;&#45;sr</title>
<path fill="none" stroke="black" d="M92.22,-71.7C93.62,-60.85 95.41,-46.92 96.8,-36.1"/>
</g>
<!-- tl -->
<g id="node5" class="node">
<title>tl</title>
</g>
<!-- t&#45;&#45;tl -->
<g id="edge5" class="edge">
<title>t&#45;&#45;tl</title>
<path fill="none" stroke="black" stroke-dasharray="5,2" d="M193.02,-71.7C191.78,-60.85 190.19,-46.92 188.95,-36.1"/>
</g>
<!-- tr -->
<g id="node6" class="node">
<title>tr</title>
</g>
<!-- t&#45;&#45;tr -->
<g id="edge6" class="edge">
<title>t&#45;&#45;tr</title>
<path fill="none" stroke="black" stroke-dasharray="5,2" d="M210.82,-71.7C220.74,-60.85 233.48,-46.92 243.36,-36.1"/>
</g>
</g>
</svg>
