<?xml version="1.0" encoding="UTF-8" standalone="no"?>
<!DOCTYPE svg PUBLIC "-//W3C//DTD SVG 1.1//EN"
 "http://www.w3.org/Graphics/SVG/1.1/DTD/svg11.dtd">
<!-- Generated by graphviz version 2.47.1 (20210417.1919)
 -->
<!-- Pages: 1 -->
<svg width="288pt" height="256pt"
 viewBox="0.00 0.00 288.00 255.66" xmlns="http://www.w3.org/2000/svg" xmlns:xlink="http://www.w3.org/1999/xlink">
<g id="graph0" class="graph" transform="scale(0.77 0.77) rotate(0) translate(4 328)">
<polygon fill="white" stroke="transparent" points="-4,4 -4,-328 370,-328 370,4 -4,4"/>
<!-- r -->
<g id="node1" class="node">
<title>r</title>
</g>
<!-- 1 -->
<g id="node2" class="node">
<title>1</title>
<text text-anchor="middle" x="216" y="-230.3" font-family="Times,serif" font-size="14.00">\(1\)</text>
</g>
<!-- r&#45;&#45;1 -->
<g id="edge2" class="edge">
<title>r&#45;&#45;1</title>
<path fill="none" stroke="black" stroke-dasharray="5,2" d="M243.1,-287.7C237.52,-276.85 230.36,-262.92 224.8,-252.1"/>
</g>
<!-- rr -->
<g id="node9" class="node">
<title>rr</title>
</g>
<!-- r&#45;&#45;rr -->
<!-- 2 -->
<g id="node3" class="node">
<title>2</title>
<text text-anchor="middle" x="165" y="-158.3" font-family="Times,serif" font-size="14.00">\(1\)</text>
</g>
<!-- 1&#45;&#45;2 -->
<g id="edge3" class="edge">
<title>1&#45;&#45;2</title>
<path fill="none" stroke="black" d="M203.39,-215.7C195.49,-204.85 185.34,-190.92 177.46,-180.1"/>
</g>
<!-- t -->
<g id="node6" class="node">
<title>t</title>
<text text-anchor="middle" x="267" y="-158.3" font-family="Times,serif" font-size="14.00">\(t&#39;\)</text>
</g>
<!-- 1&#45;&#45;t -->
<g id="edge6" class="edge">
<title>1&#45;&#45;t</title>
<path fill="none" stroke="black" d="M228.61,-215.7C236.51,-204.85 246.66,-190.92 254.54,-180.1"/>
</g>
<!-- s -->
<g id="node4" class="node">
<title>s</title>
<text text-anchor="middle" x="63" y="-86.3" font-family="Times,serif" font-size="14.00">\(s\)</text>
</g>
<!-- 2&#45;&#45;s -->
<g id="edge4" class="edge">
<title>2&#45;&#45;s</title>
<path fill="none" stroke="black" d="M140.05,-143.88C124.24,-133.03 103.87,-119.05 88.05,-108.19"/>
</g>
<!-- n -->
<g id="node5" class="node">
<title>n</title>
<text text-anchor="middle" x="165" y="-86.3" font-family="Times,serif" font-size="14.00">\(\pointed{}\)</text>
</g>
<!-- 2&#45;&#45;n -->
<g id="edge5" class="edge">
<title>2&#45;&#45;n</title>
<path fill="none" stroke="black" d="M165,-143.7C165,-132.85 165,-118.92 165,-108.1"/>
</g>
<!-- sl -->
<g id="node10" class="node">
<title>sl</title>
</g>
<!-- s&#45;&#45;sl -->
<g id="edge9" class="edge">
<title>s&#45;&#45;sl</title>
<path fill="none" stroke="black" d="M54.1,-71.7C48.52,-60.85 41.36,-46.92 35.8,-36.1"/>
</g>
<!-- sr -->
<g id="node11" class="node">
<title>sr</title>
</g>
<!-- s&#45;&#45;sr -->
<g id="edge10" class="edge">
<title>s&#45;&#45;sr</title>
<path fill="none" stroke="black" d="M71.9,-71.7C77.48,-60.85 84.64,-46.92 90.2,-36.1"/>
</g>
<!-- tl -->
<g id="node7" class="node">
<title>tl</title>
</g>
<!-- t&#45;&#45;tl -->
<g id="edge7" class="edge">
<title>t&#45;&#45;tl</title>
<path fill="none" stroke="black" stroke-dasharray="5,2" d="M267,-143.7C267,-132.85 267,-118.92 267,-108.1"/>
</g>
<!-- tr -->
<g id="node8" class="node">
<title>tr</title>
</g>
<!-- t&#45;&#45;tr -->
<g id="edge8" class="edge">
<title>t&#45;&#45;tr</title>
<path fill="none" stroke="black" stroke-dasharray="5,2" d="M284.8,-143.7C295.96,-132.85 310.29,-118.92 321.41,-108.1"/>
</g>
</g>
</svg>
