<?xml version="1.0" encoding="UTF-8" standalone="no"?>
<!DOCTYPE svg PUBLIC "-//W3C//DTD SVG 1.1//EN"
 "http://www.w3.org/Graphics/SVG/1.1/DTD/svg11.dtd">
<!-- Generated by graphviz version 2.47.1 (20210417.1919)
 -->
<!-- Pages: 1 -->
<svg width="288pt" height="216pt"
 viewBox="0.00 0.00 288.00 215.84" xmlns="http://www.w3.org/2000/svg" xmlns:xlink="http://www.w3.org/1999/xlink">
<g id="graph0" class="graph" transform="scale(0.65 0.65) rotate(0) translate(4 328)">
<!-- r -->
<g id="node1" class="node">
<title>r</title>
</g>
<!-- 1 -->
<g id="node2" class="node">
<title>1</title>
<text text-anchor="middle" x="165" y="-230.3" font-family="Times,serif" font-size="14.00">\(\phantom{\weighted{1}}\n\weighted{1}\)</text>
</g>
<!-- r&#45;&#45;1 -->
<g id="edge2" class="edge">
<title>r&#45;&#45;1</title>
<path fill="none" stroke="black" stroke-dasharray="5,2" d="M244.31,-287.88C228.04,-277.03 207.07,-263.05 190.78,-252.19"/>
</g>
<!-- rr -->
<g id="node9" class="node">
<title>rr</title>
</g>
<!-- r&#45;&#45;rr -->
<!-- t -->
<g id="node3" class="node">
<title>t</title>
<text text-anchor="middle" x="60" y="-158.3" font-family="Times,serif" font-size="14.00">\(t&#39;\)</text>
</g>
<!-- 1&#45;&#45;t -->
<g id="edge6" class="edge">
<title>1&#45;&#45;t</title>
<path fill="none" stroke="black" d="M139.31,-215.88C123.04,-205.03 102.07,-191.05 85.78,-180.19"/>
</g>
<!-- 2 -->
<g id="node6" class="node">
<title>2</title>
<text text-anchor="middle" x="270" y="-158.3" font-family="Times,serif" font-size="14.00">\(\phantom{\weighted{1}}\n\weighted{1}\)</text>
</g>
<!-- 1&#45;&#45;2 -->
<g id="edge3" class="edge">
<title>1&#45;&#45;2</title>
<path fill="none" stroke="black" d="M190.69,-215.88C206.96,-205.03 227.93,-191.05 244.22,-180.19"/>
</g>
<!-- tl -->
<g id="node4" class="node">
<title>tl</title>
</g>
<!-- t&#45;&#45;tl -->
<g id="edge7" class="edge">
<title>t&#45;&#45;tl</title>
<path fill="none" stroke="black" stroke-dasharray="5,2" d="M55.55,-143.7C52.76,-132.85 49.18,-118.92 46.4,-108.1"/>
</g>
<!-- tr -->
<g id="node5" class="node">
<title>tr</title>
</g>
<!-- t&#45;&#45;tr -->
<g id="edge8" class="edge">
<title>t&#45;&#45;tr</title>
<path fill="none" stroke="black" stroke-dasharray="5,2" d="M73.35,-143.7C81.72,-132.85 92.46,-118.92 100.81,-108.1"/>
</g>
<!-- s -->
<g id="node7" class="node">
<title>s</title>
<text text-anchor="middle" x="228" y="-86.3" font-family="Times,serif" font-size="14.00">\(s\)</text>
</g>
<!-- 2&#45;&#45;s -->
<g id="edge4" class="edge">
<title>2&#45;&#45;s</title>
<path fill="none" stroke="black" d="M259.62,-143.7C253.11,-132.85 244.75,-118.92 238.26,-108.1"/>
</g>
<!-- n -->
<g id="node8" class="node">
<title>n</title>
<text text-anchor="middle" x="330" y="-86.3" font-family="Times,serif" font-size="14.00">\(\pointed{}\)</text>
</g>
<!-- 2&#45;&#45;n -->
<g id="edge5" class="edge">
<title>2&#45;&#45;n</title>
<path fill="none" stroke="black" d="M284.83,-143.7C294.13,-132.85 306.07,-118.92 315.34,-108.1"/>
</g>
<!-- sl -->
<g id="node10" class="node">
<title>sl</title>
</g>
<!-- s&#45;&#45;sl -->
<g id="edge9" class="edge">
<title>s&#45;&#45;sl</title>
<path fill="none" stroke="black" d="M219.1,-71.7C213.52,-60.85 206.36,-46.92 200.8,-36.1"/>
</g>
<!-- sr -->
<g id="node11" class="node">
<title>sr</title>
</g>
<!-- s&#45;&#45;sr -->
<g id="edge10" class="edge">
<title>s&#45;&#45;sr</title>
<path fill="none" stroke="black" d="M236.9,-71.7C242.48,-60.85 249.64,-46.92 255.2,-36.1"/>
</g>
</g>
</svg>
