<?xml version="1.0" encoding="UTF-8" standalone="no"?>
<!DOCTYPE svg PUBLIC "-//W3C//DTD SVG 1.1//EN"
 "http://www.w3.org/Graphics/SVG/1.1/DTD/svg11.dtd">
<!-- Generated by graphviz version 2.47.1 (20210417.1919)
 -->
<!-- Pages: 1 -->
<svg width="288pt" height="216pt"
 viewBox="0.00 0.00 288.00 215.84" xmlns="http://www.w3.org/2000/svg" xmlns:xlink="http://www.w3.org/1999/xlink">
<g id="graph0" class="graph" transform="scale(0.65 0.65) rotate(0) translate(4 328)">
<!-- r -->
<g id="node1" class="node">
<title>r</title>
</g>
<!-- 1 -->
<g id="node2" class="node">
<title>1</title>
<text text-anchor="middle" x="165" y="-230.3" font-family="Times,serif" font-size="14.00">\(\phantom{\weighted{1}}\n\weighted{1}\)</text>
</g>
<!-- r&#45;&#45;1 -->
<g id="edge2" class="edge">
<title>r&#45;&#45;1</title>
<path fill="none" stroke="black" stroke-dasharray="5,2" d="M244.31,-287.88C228.04,-277.03 207.07,-263.05 190.78,-252.19"/>
</g>
<!-- rr -->
<g id="node9" class="node">
<title>rr</title>
</g>
<!-- r&#45;&#45;rr -->
<!-- t -->
<g id="node3" class="node">
<title>t</title>
<text text-anchor="middle" x="60" y="-158.3" font-family="Times,serif" font-size="14.00">\(t&#39;\)</text>
</g>
<!-- 1&#45;&#45;t -->
<g id="edge6" class="edge">
<title>1&#45;&#45;t</title>
<path fill="none" stroke="black" d="M139.31,-215.88C123.04,-205.03 102.07,-191.05 85.78,-180.19"/>
</g>
<!-- 2 -->
<g id="node6" class="node">
<title>2</title>
<text text-anchor="middle" x="270" y="-158.3" font-family="Times,serif" font-size="14.00">\(\phantom{\weighted{2}}\n\weighted{2}\)</text>
</g>
<!-- 1&#45;&#45;2 -->
<g id="edge3" class="edge">
<title>1&#45;&#45;2</title>
<path fill="none" stroke="black" d="M190.69,-215.88C206.96,-205.03 227.93,-191.05 244.22,-180.19"/>
</g>
<!-- tl -->
<g id="node4" class="node">
<title>tl</title>
</g>
<!-- t&#45;&#45;tl -->
<g id="edge7" class="edge">
<title>t&#45;&#45;tl</title>
<path fill="none" stroke="black" stroke-dasharray="5,2" d="M51.84,-143.7C46.73,-132.85 40.16,-118.92 35.06,-108.1"/>
</g>
<!-- tr -->
<g id="node5" class="node">
<title>tr</title>
</g>
<!-- t&#45;&#45;tr -->
<g id="edge8" class="edge">
<title>t&#45;&#45;tr</title>
<path fill="none" stroke="black" stroke-dasharray="5,2" d="M69.64,-143.7C75.69,-132.85 83.45,-118.92 89.47,-108.1"/>
</g>
<!-- n -->
<g id="node7" class="node">
<title>n</title>
<text text-anchor="middle" x="235" y="-86.3" font-family="Times,serif" font-size="14.00">\(\pointed{}\)</text>
</g>
<!-- 2&#45;&#45;n -->
<g id="edge5" class="edge">
<title>2&#45;&#45;n</title>
<path fill="none" stroke="black" d="M261.35,-143.7C255.92,-132.85 248.96,-118.92 243.55,-108.1"/>
</g>
<!-- s -->
<g id="node8" class="node">
<title>s</title>
<text text-anchor="middle" x="337" y="-86.3" font-family="Times,serif" font-size="14.00">\(s\)</text>
</g>
<!-- 2&#45;&#45;s -->
<g id="edge4" class="edge">
<title>2&#45;&#45;s</title>
<path fill="none" stroke="black" d="M286.56,-143.7C296.95,-132.85 310.28,-118.92 320.63,-108.1"/>
</g>
<!-- sl -->
<g id="node10" class="node">
<title>sl</title>
</g>
<!-- s&#45;&#45;sl -->
<g id="edge9" class="edge">
<title>s&#45;&#45;sl</title>
<path fill="none" stroke="black" d="M328.1,-71.7C322.52,-60.85 315.36,-46.92 309.8,-36.1"/>
</g>
<!-- sr -->
<g id="node11" class="node">
<title>sr</title>
</g>
<!-- s&#45;&#45;sr -->
<g id="edge10" class="edge">
<title>s&#45;&#45;sr</title>
<path fill="none" stroke="black" d="M345.9,-71.7C351.48,-60.85 358.64,-46.92 364.2,-36.1"/>
</g>
</g>
</svg>
