<?xml version="1.0" encoding="UTF-8" standalone="no"?>
<!DOCTYPE svg PUBLIC "-//W3C//DTD SVG 1.1//EN"
 "http://www.w3.org/Graphics/SVG/1.1/DTD/svg11.dtd">
<!-- Generated by graphviz version 2.47.1 (20210417.1919)
 -->
<!-- Pages: 1 -->
<svg width="288pt" height="186pt"
 viewBox="0.00 0.00 288.00 185.66" xmlns="http://www.w3.org/2000/svg" xmlns:xlink="http://www.w3.org/1999/xlink">
<g id="graph0" class="graph" transform="scale(0.56 0.56) rotate(0) translate(4 328)">
<polygon fill="white" stroke="transparent" points="-4,4 -4,-328 511,-328 511,4 -4,4"/>
<!-- r -->
<g id="node1" class="node">
<title>r</title>
</g>
<!-- 1 -->
<g id="node2" class="node">
<title>1</title>
<text text-anchor="middle" x="270" y="-230.3" font-family="Times,serif" font-size="14.00">\(\phantom{\weighted{2}}\n\weighted{2}\)</text>
</g>
<!-- r&#45;&#45;1 -->
<g id="edge2" class="edge">
<title>r&#45;&#45;1</title>
<path fill="none" stroke="black" stroke-dasharray="5,2" d="M349.31,-287.88C333.04,-277.03 312.07,-263.05 295.78,-252.19"/>
</g>
<!-- rr -->
<g id="node9" class="node">
<title>rr</title>
</g>
<!-- r&#45;&#45;rr -->
<!-- 2 -->
<g id="node3" class="node">
<title>2</title>
<text text-anchor="middle" x="165" y="-158.3" font-family="Times,serif" font-size="14.00">\(\phantom{\weighted{1}}\n\weighted{1}\)</text>
</g>
<!-- 1&#45;&#45;2 -->
<g id="edge3" class="edge">
<title>1&#45;&#45;2</title>
<path fill="none" stroke="black" d="M244.31,-215.88C228.04,-205.03 207.07,-191.05 190.78,-180.19"/>
</g>
<!-- t -->
<g id="node6" class="node">
<title>t</title>
<text text-anchor="middle" x="375" y="-158.3" font-family="Times,serif" font-size="14.00">\(t&#39;&#39;\)</text>
</g>
<!-- 1&#45;&#45;t -->
<g id="edge6" class="edge">
<title>1&#45;&#45;t</title>
<path fill="none" stroke="black" d="M295.69,-215.88C311.96,-205.03 332.93,-191.05 349.22,-180.19"/>
</g>
<!-- s -->
<g id="node4" class="node">
<title>s</title>
<text text-anchor="middle" x="132" y="-86.3" font-family="Times,serif" font-size="14.00">\(s\)</text>
</g>
<!-- 2&#45;&#45;s -->
<g id="edge4" class="edge">
<title>2&#45;&#45;s</title>
<path fill="none" stroke="black" d="M156.84,-143.7C151.73,-132.85 145.16,-118.92 140.06,-108.1"/>
</g>
<!-- n -->
<g id="node5" class="node">
<title>n</title>
<text text-anchor="middle" x="234" y="-86.3" font-family="Times,serif" font-size="14.00">\(\pointed{}\)</text>
</g>
<!-- 2&#45;&#45;n -->
<g id="edge5" class="edge">
<title>2&#45;&#45;n</title>
<path fill="none" stroke="black" d="M182.06,-143.7C192.75,-132.85 206.48,-118.92 217.14,-108.1"/>
</g>
<!-- sl -->
<g id="node10" class="node">
<title>sl</title>
</g>
<!-- s&#45;&#45;sl -->
<g id="edge9" class="edge">
<title>s&#45;&#45;sl</title>
<path fill="none" stroke="black" d="M123.1,-71.7C117.52,-60.85 110.36,-46.92 104.8,-36.1"/>
</g>
<!-- sr -->
<g id="node11" class="node">
<title>sr</title>
</g>
<!-- s&#45;&#45;sr -->
<g id="edge10" class="edge">
<title>s&#45;&#45;sr</title>
<path fill="none" stroke="black" d="M140.9,-71.7C146.48,-60.85 153.64,-46.92 159.2,-36.1"/>
</g>
<!-- tl -->
<g id="node7" class="node">
<title>tl</title>
</g>
<!-- t&#45;&#45;tl -->
<g id="edge7" class="edge">
<title>t&#45;&#45;tl</title>
<path fill="none" stroke="black" d="M370.06,-143.7C366.96,-132.85 362.98,-118.92 359.89,-108.1"/>
</g>
<!-- tr -->
<g id="node8" class="node">
<title>tr</title>
</g>
<!-- t&#45;&#45;tr -->
<g id="edge8" class="edge">
<title>t&#45;&#45;tr</title>
<path fill="none" stroke="black" d="M387.85,-143.7C395.91,-132.85 406.26,-118.92 414.29,-108.1"/>
</g>
</g>
</svg>
