<?xml version="1.0" encoding="UTF-8" standalone="no"?>
<!DOCTYPE svg PUBLIC "-//W3C//DTD SVG 1.1//EN"
 "http://www.w3.org/Graphics/SVG/1.1/DTD/svg11.dtd">
<!-- Generated by graphviz version 2.47.1 (20210417.1919)
 -->
<!-- Pages: 1 -->
<svg width="288pt" height="183pt"
 viewBox="0.00 0.00 288.00 182.63" xmlns="http://www.w3.org/2000/svg" xmlns:xlink="http://www.w3.org/1999/xlink">
<g id="graph0" class="graph" transform="scale(0.7 0.7) rotate(0) translate(4 256)">
<!-- r -->
<g id="node1" class="node">
<title>r</title>
</g>
<!-- 1 -->
<g id="node2" class="node">
<title>1</title>
<text text-anchor="middle" x="165" y="-158.3" font-family="Times,serif" font-size="14.00">\(\phantom{\weighted{2}}\n\weighted{2}\)</text>
</g>
<!-- r&#45;&#45;1 -->
<g id="edge2" class="edge">
<title>r&#45;&#45;1</title>
<path fill="none" stroke="black" stroke-dasharray="5,2" d="M244.31,-215.88C228.04,-205.03 207.07,-191.05 190.78,-180.19"/>
</g>
<!-- rr -->
<g id="node7" class="node">
<title>rr</title>
</g>
<!-- r&#45;&#45;rr -->
<!-- t -->
<g id="node3" class="node">
<title>t</title>
<text text-anchor="middle" x="113" y="-86.3" font-family="Times,serif" font-size="14.00">\(t&#39;\)</text>
</g>
<!-- 1&#45;&#45;t -->
<g id="edge4" class="edge">
<title>1&#45;&#45;t</title>
<path fill="none" stroke="black" d="M152.15,-143.7C144.09,-132.85 133.74,-118.92 125.71,-108.1"/>
</g>
<!-- s -->
<g id="node6" class="node">
<title>s</title>
<text text-anchor="middle" x="218" y="-86.3" font-family="Times,serif" font-size="14.00">\(\pointed{s}\)</text>
</g>
<!-- 1&#45;&#45;s -->
<g id="edge3" class="edge">
<title>1&#45;&#45;s</title>
<path fill="none" stroke="black" d="M178.1,-143.7C186.32,-132.85 196.86,-118.92 205.05,-108.1"/>
</g>
<!-- tl -->
<g id="node4" class="node">
<title>tl</title>
</g>
<!-- t&#45;&#45;tl -->
<g id="edge5" class="edge">
<title>t&#45;&#45;tl</title>
<path fill="none" stroke="black" stroke-dasharray="5,2" d="M97.43,-71.7C87.66,-60.85 75.13,-46.92 65.39,-36.1"/>
</g>
<!-- tr -->
<g id="node5" class="node">
<title>tr</title>
</g>
<!-- t&#45;&#45;tr -->
<g id="edge6" class="edge">
<title>t&#45;&#45;tr</title>
<path fill="none" stroke="black" stroke-dasharray="5,2" d="M115.22,-71.7C116.62,-60.85 118.41,-46.92 119.8,-36.1"/>
</g>
<!-- sl -->
<g id="node8" class="node">
<title>sl</title>
</g>
<!-- s&#45;&#45;sl -->
<g id="edge7" class="edge">
<title>s&#45;&#45;sl</title>
<path fill="none" stroke="black" d="M216.02,-71.7C214.78,-60.85 213.19,-46.92 211.95,-36.1"/>
</g>
<!-- sr -->
<g id="node9" class="node">
<title>sr</title>
</g>
<!-- s&#45;&#45;sr -->
<g id="edge8" class="edge">
<title>s&#45;&#45;sr</title>
<path fill="none" stroke="black" d="M233.82,-71.7C243.74,-60.85 256.48,-46.92 266.36,-36.1"/>
</g>
</g>
</svg>
