<?xml version="1.0" encoding="UTF-8" standalone="no"?>
<!DOCTYPE svg PUBLIC "-//W3C//DTD SVG 1.1//EN"
 "http://www.w3.org/Graphics/SVG/1.1/DTD/svg11.dtd">
<!-- Generated by graphviz version 2.47.1 (20210417.1919)
 -->
<!-- Pages: 1 -->
<svg width="149pt" height="224pt"
 viewBox="0.00 0.00 149.49 224.00" xmlns="http://www.w3.org/2000/svg" xmlns:xlink="http://www.w3.org/1999/xlink">
<g id="graph0" class="graph" transform="scale(1 1) rotate(0) translate(4 220)">
<polygon fill="white" stroke="transparent" points="-4,4 -4,-220 145.49,-220 145.49,4 -4,4"/>
<!-- 0 -->
<g id="node1" class="node">
<title>0</title>
</g>
<!-- B -->
<g id="node2" class="node">
<title>B</title>
<ellipse fill="black" stroke="black" cx="65.49" cy="-126" rx="3.5" ry="3.5"/>
</g>
<!-- 0&#45;&#45;B -->
<g id="edge1" class="edge">
<title>0&#45;&#45;B</title>
<path fill="none" stroke="black" stroke-dasharray="5,2" d="M83.56,-179.7C77.67,-162.53 69.15,-137.66 66.39,-129.61"/>
</g>
<!-- 1 -->
<g id="node3" class="node">
<title>1</title>
</g>
<!-- 0&#45;&#45;1 -->
<!-- B1 -->
<g id="node4" class="node">
<title>B1</title>
<polygon fill="none" stroke="black" points="28.49,-72 0.01,-18 56.98,-18 28.49,-72"/>
<text text-anchor="middle" x="28.49" y="-32.3" font-family="Times,serif" font-size="14.00">B</text>
</g>
<!-- B&#45;&#45;B1 -->
<g id="edge3" class="edge">
<title>B&#45;&#45;B1</title>
<path fill="none" stroke="black" d="M64.43,-122.46C60.42,-112.94 46.04,-78.74 36.73,-56.6"/>
</g>
<!-- B2 -->
<g id="node5" class="node">
<title>B2</title>
<polygon fill="none" stroke="black" points="103.49,-72 75.01,-18 131.98,-18 103.49,-72"/>
<text text-anchor="middle" x="103.49" y="-32.3" font-family="Times,serif" font-size="14.00">B</text>
</g>
<!-- B&#45;&#45;B2 -->
<g id="edge4" class="edge">
<title>B&#45;&#45;B2</title>
<path fill="none" stroke="black" d="M66.59,-122.46C70.7,-112.94 85.47,-78.74 95.03,-56.6"/>
</g>
</g>
</svg>
