<?xml version="1.0" encoding="UTF-8" standalone="no"?>
<!DOCTYPE svg PUBLIC "-//W3C//DTD SVG 1.1//EN"
 "http://www.w3.org/Graphics/SVG/1.1/DTD/svg11.dtd">
<!-- Generated by graphviz version 2.47.1 (20210417.1919)
 -->
<!-- Pages: 1 -->
<svg width="52pt" height="144pt"
 viewBox="0.00 0.00 52.00 144.00" xmlns="http://www.w3.org/2000/svg" xmlns:xlink="http://www.w3.org/1999/xlink">
<g id="graph0" class="graph" transform="scale(1 1) rotate(0) translate(4 140)">
<polygon fill="white" stroke="transparent" points="-4,4 -4,-140 48,-140 48,4 -4,4"/>
<!-- 0 -->
<g id="node1" class="node">
<title>0</title>
<ellipse fill="black" stroke="black" cx="27.5" cy="-132.5" rx="3.5" ry="3.5"/>
</g>
<!-- 1 -->
<g id="node2" class="node">
<title>1</title>
<ellipse fill="black" stroke="black" cx="15.5" cy="-89.5" rx="3.5" ry="3.5"/>
</g>
<!-- 0&#45;&#45;1 -->
<g id="edge1" class="edge">
<title>0&#45;&#45;1</title>
<path fill="none" stroke="black" d="M26.71,-128.81C24.54,-121.4 18.5,-100.74 16.31,-93.25"/>
</g>
<!-- 6 -->
<!-- 0&#45;&#45;6 -->
<g id="edge6" class="edge">
<title>0&#45;&#45;6</title>
<path fill="none" stroke="lightgreen" d="M28.35,-128.81C30.7,-121.4 37.25,-100.74 39.63,-93.25"/>
</g>
<!-- 2 -->
<!-- 1&#45;&#45;2 -->
<g id="edge2" class="edge">
<title>1&#45;&#45;2</title>
<path fill="none" stroke="lightgreen" d="M14.71,-85.81C12.54,-78.4 6.5,-57.74 4.31,-50.25"/>
</g>
<!-- 3 -->
<g id="node4" class="node">
<title>3</title>
<ellipse fill="black" stroke="black" cx="28.5" cy="-46.5" rx="3.5" ry="3.5"/>
</g>
<!-- 1&#45;&#45;3 -->
<g id="edge3" class="edge">
<title>1&#45;&#45;3</title>
<path fill="none" stroke="black" d="M16.35,-85.81C18.7,-78.4 25.25,-57.74 27.63,-50.25"/>
</g>
<!-- 4 -->
<!-- 3&#45;&#45;4 -->
<g id="edge4" class="edge">
<title>3&#45;&#45;4</title>
<path fill="none" stroke="lightgreen" d="M27.65,-42.81C25.3,-35.4 18.75,-14.74 16.37,-7.25"/>
</g>
<!-- 5 -->
<!-- 3&#45;&#45;5 -->
<g id="edge5" class="edge">
<title>3&#45;&#45;5</title>
<path fill="none" stroke="lightgreen" d="M29.29,-42.81C31.46,-35.4 37.5,-14.74 39.69,-7.25"/>
</g>
</g>
</svg>
