<?xml version="1.0" encoding="UTF-8" standalone="no"?>
<!DOCTYPE svg PUBLIC "-//W3C//DTD SVG 1.1//EN"
 "http://www.w3.org/Graphics/SVG/1.1/DTD/svg11.dtd">
<!-- Generated by graphviz version 2.47.1 (20210417.1919)
 -->
<!-- Pages: 1 -->
<svg width="242pt" height="288pt"
 viewBox="0.00 0.00 242.21 288.00" xmlns="http://www.w3.org/2000/svg" xmlns:xlink="http://www.w3.org/1999/xlink">
<g id="graph0" class="graph" transform="scale(0.71 0.71) rotate(0) translate(4 400)">
<polygon fill="white" stroke="transparent" points="-4,4 -4,-400 335.77,-400 335.77,4 -4,4"/>
<!-- r -->
<g id="node1" class="node">
<title>r</title>
</g>
<!-- 1 -->
<g id="node2" class="node">
<title>1</title>
<text text-anchor="middle" x="150" y="-302.3" font-family="Times,serif" font-size="14.00">\(\n\)</text>
</g>
<!-- r&#45;&#45;1 -->
<g id="edge1" class="edge">
<title>r&#45;&#45;1</title>
<path fill="none" stroke="black" stroke-dasharray="5,2" d="M177.1,-359.7C171.52,-348.85 164.36,-334.92 158.8,-324.1"/>
</g>
<!-- rr -->
<g id="node5" class="node">
<title>rr</title>
</g>
<!-- r&#45;&#45;rr -->
<!-- 2 -->
<g id="node3" class="node">
<title>2</title>
<text text-anchor="middle" x="63" y="-158.3" font-family="Times,serif" font-size="14.00">\(\pointed{\n}\)</text>
</g>
<!-- 1&#45;&#45;2 -->
<g id="edge3" class="edge">
<title>1&#45;&#45;2</title>
<path fill="none" stroke="black" d="M139.51,-287.87C122.78,-260.58 90.28,-207.52 73.53,-180.19"/>
</g>
<!-- v -->
<g id="node4" class="node">
<title>v</title>
<polygon fill="none" stroke="black" points="238,-252 144.46,-117 331.54,-117 238,-252"/>
<text text-anchor="middle" x="238" y="-158.3" font-family="Times,serif" font-size="14.00">\(\tSub(v)\)</text>
</g>
<!-- 1&#45;&#45;v -->
<g id="edge6" class="edge">
<title>1&#45;&#45;v:n</title>
<path fill="none" stroke="black" d="M177.36,-288.52C203.19,-272.96 238,-252 238,-252"/>
</g>
<!-- 00 -->
<g id="node6" class="node">
<title>00</title>
</g>
<!-- 2&#45;&#45;00 -->
<g id="edge4" class="edge">
<title>2&#45;&#45;00</title>
<path fill="none" stroke="lightgreen" d="M58.66,-143.87C51.74,-116.58 38.29,-63.52 31.36,-36.19"/>
</g>
<!-- 01 -->
<g id="node7" class="node">
<title>01</title>
</g>
<!-- 2&#45;&#45;01 -->
<g id="edge5" class="edge">
<title>2&#45;&#45;01</title>
<path fill="none" stroke="lightgreen" d="M67.34,-143.87C74.26,-116.58 87.71,-63.52 94.64,-36.19"/>
</g>
</g>
</svg>
