<?xml version="1.0" encoding="UTF-8" standalone="no"?>
<!DOCTYPE svg PUBLIC "-//W3C//DTD SVG 1.1//EN"
 "http://www.w3.org/Graphics/SVG/1.1/DTD/svg11.dtd">
<!-- Generated by graphviz version 2.47.1 (20210417.1919)
 -->
<!-- Pages: 1 -->
<svg width="288pt" height="177pt"
 viewBox="0.00 0.00 288.00 177.44" xmlns="http://www.w3.org/2000/svg" xmlns:xlink="http://www.w3.org/1999/xlink">
<g id="graph0" class="graph" transform="scale(0.68 0.68) rotate(0) translate(4 256)">
<polygon fill="white" stroke="transparent" points="-4,4 -4,-256 418,-256 418,4 -4,4"/>
<!-- 0 -->
<g id="node1" class="node">
<title>0</title>
<text text-anchor="middle" x="207" y="-230.3" font-family="Times,serif" font-size="14.00">\(\n\)</text>
</g>
<!-- 1 -->
<g id="node2" class="node">
<title>1</title>
<text text-anchor="middle" x="171" y="-158.3" font-family="Times,serif" font-size="14.00">\(\n\)</text>
</g>
<!-- 0&#45;&#45;1 -->
<g id="edge1" class="edge">
<title>0&#45;&#45;1</title>
<path fill="none" stroke="black" d="M198.1,-215.7C192.52,-204.85 185.36,-190.92 179.8,-180.1"/>
</g>
<!-- 2 -->
<g id="node3" class="node">
<title>2</title>
<text text-anchor="middle" x="243" y="-158.3" font-family="Times,serif" font-size="14.00">\(\n\)</text>
</g>
<!-- 0&#45;&#45;2 -->
<g id="edge2" class="edge">
<title>0&#45;&#45;2</title>
<path fill="none" stroke="black" d="M215.9,-215.7C221.48,-204.85 228.64,-190.92 234.2,-180.1"/>
</g>
<!-- 3 -->
<g id="node4" class="node">
<title>3</title>
<text text-anchor="middle" x="99" y="-86.3" font-family="Times,serif" font-size="14.00">\(\n\)</text>
</g>
<!-- 1&#45;&#45;3 -->
<g id="edge3" class="edge">
<title>1&#45;&#45;3</title>
<path fill="none" stroke="black" d="M153.2,-143.7C142.04,-132.85 127.71,-118.92 116.59,-108.1"/>
</g>
<!-- 00 -->
<!-- 1&#45;&#45;00 -->
<g id="edge6" class="edge">
<title>1&#45;&#45;00</title>
<path fill="none" stroke="lightgreen" d="M171,-143.7C171,-132.85 171,-118.92 171,-108.1"/>
</g>
<!-- 4 -->
<g id="node5" class="node">
<title>4</title>
<text text-anchor="middle" x="243" y="-86.3" font-family="Times,serif" font-size="14.00">\(\n\)</text>
</g>
<!-- 2&#45;&#45;4 -->
<g id="edge4" class="edge">
<title>2&#45;&#45;4</title>
<path fill="none" stroke="black" d="M243,-143.7C243,-132.85 243,-118.92 243,-108.1"/>
</g>
<!-- 5 -->
<g id="node6" class="node">
<title>5</title>
<text text-anchor="middle" x="315" y="-86.3" font-family="Times,serif" font-size="14.00">\(\n\)</text>
</g>
<!-- 2&#45;&#45;5 -->
<g id="edge5" class="edge">
<title>2&#45;&#45;5</title>
<path fill="none" stroke="black" d="M260.8,-143.7C271.96,-132.85 286.29,-118.92 297.41,-108.1"/>
</g>
<!-- 01 -->
<!-- 3&#45;&#45;01 -->
<g id="edge7" class="edge">
<title>3&#45;&#45;01</title>
<path fill="none" stroke="lightgreen" d="M81.2,-71.7C70.04,-60.85 55.71,-46.92 44.59,-36.1"/>
</g>
<!-- 02 -->
<!-- 3&#45;&#45;02 -->
<g id="edge8" class="edge">
<title>3&#45;&#45;02</title>
<path fill="none" stroke="lightgreen" d="M99,-71.7C99,-60.85 99,-46.92 99,-36.1"/>
</g>
<!-- 03 -->
<!-- 4&#45;&#45;03 -->
<g id="edge9" class="edge">
<title>4&#45;&#45;03</title>
<path fill="none" stroke="lightgreen" d="M225.2,-71.7C214.04,-60.85 199.71,-46.92 188.59,-36.1"/>
</g>
<!-- 04 -->
<!-- 4&#45;&#45;04 -->
<g id="edge10" class="edge">
<title>4&#45;&#45;04</title>
<path fill="none" stroke="lightgreen" d="M243,-71.7C243,-60.85 243,-46.92 243,-36.1"/>
</g>
<!-- 05 -->
<!-- 5&#45;&#45;05 -->
<g id="edge11" class="edge">
<title>5&#45;&#45;05</title>
<path fill="none" stroke="lightgreen" d="M315,-71.7C315,-60.85 315,-46.92 315,-36.1"/>
</g>
<!-- 06 -->
<!-- 5&#45;&#45;06 -->
<g id="edge12" class="edge">
<title>5&#45;&#45;06</title>
<path fill="none" stroke="lightgreen" d="M332.8,-71.7C343.96,-60.85 358.29,-46.92 369.41,-36.1"/>
</g>
</g>
</svg>
