<?xml version="1.0" encoding="UTF-8" standalone="no"?>
<!DOCTYPE svg PUBLIC "-//W3C//DTD SVG 1.1//EN"
 "http://www.w3.org/Graphics/SVG/1.1/DTD/svg11.dtd">
<!-- Generated by graphviz version 2.47.1 (20210417.1919)
 -->
<!-- Pages: 1 -->
<svg width="258pt" height="288pt"
 viewBox="0.00 0.00 258.00 288.00" xmlns="http://www.w3.org/2000/svg" xmlns:xlink="http://www.w3.org/1999/xlink">
<g id="graph0" class="graph" transform="scale(0.55 0.55) rotate(0) translate(4 524)">
<g id="clust1" class="cluster">
<title>cluster_1</title>
<path fill="#ffffff" fill-opacity="0.003922" stroke="black" d="M92,-8C92,-8 373,-8 373,-8 379,-8 385,-14 385,-20 385,-20 385,-379.5 385,-379.5 385,-385.5 379,-391.5 373,-391.5 373,-391.5 92,-391.5 92,-391.5 86,-391.5 80,-385.5 80,-379.5 80,-379.5 80,-20 80,-20 80,-14 86,-8 92,-8"/>
</g>
<!-- r -->
<g id="node1" class="node">
<title>r</title>
</g>
<!-- rl -->
<g id="node2" class="node">
<title>rl</title>
</g>
<!-- r&#45;&#45;rl -->
<!-- 0 -->
<g id="node5" class="node">
<title>0</title>
<text text-anchor="middle" x="248" y="-372.3" font-family="Times,serif" font-size="14.00">\(\n\)</text>
</g>
<!-- r&#45;&#45;0 -->
<!-- r2 -->
<g id="node3" class="node">
<title>r2</title>
</g>
<!-- r2r -->
<g id="node4" class="node">
<title>r2r</title>
</g>
<!-- r2&#45;&#45;r2r -->
<!-- r2&#45;&#45;0 -->
<g id="edge4" class="edge">
<title>r2&#45;&#45;0</title>
<path fill="none" stroke="black" stroke-dasharray="5,2" d="M282.83,-448C271.47,-424.84 257.56,-396.48 251.31,-383.75"/>
</g>
<!-- g2 -->
<g id="node6" class="node">
<title>g2</title>
<polygon fill="none" stroke="black" points="197,-304 129.42,-250 264.58,-250 197,-304"/>
<text text-anchor="middle" x="197" y="-264.3" font-family="Times,serif" font-size="14.00">\(H_1\)</text>
</g>
<!-- 0&#45;&#45;g2 -->
<g id="edge5" class="edge">
<title>0&#45;&#45;g2:n</title>
<path fill="none" stroke="black" stroke-dasharray="5,2" d="M243.29,-368.45C230.67,-350.87 197,-304 197,-304"/>
</g>
<!-- 1 -->
<g id="node7" class="node">
<title>1</title>
<text text-anchor="middle" x="300" y="-264.3" font-family="Times,serif" font-size="14.00">\(\n\)</text>
</g>
<!-- 0&#45;&#45;1 -->
<g id="edge6" class="edge">
<title>0&#45;&#45;1</title>
<path fill="none" stroke="black" d="M251.25,-368.37C260.59,-349.33 287.41,-294.66 296.75,-275.63"/>
</g>
<!-- 2 -->
<g id="node8" class="node">
<title>2</title>
<text text-anchor="middle" x="222" y="-156.3" font-family="Times,serif" font-size="14.00">\(\mhll{\n}\)</text>
</g>
<!-- 1&#45;&#45;2 -->
<g id="edge7" class="edge">
<title>1&#45;&#45;2</title>
<path fill="none" stroke="black" d="M295.12,-260.37C281.11,-241.33 240.88,-186.66 226.88,-167.63"/>
</g>
<!-- r0 -->
<g id="node11" class="node">
<title>r0</title>
</g>
<!-- 1&#45;&#45;r0 -->
<g id="edge8" class="edge">
<title>1&#45;&#45;r0</title>
<path fill="none" stroke="lightgreen" d="M301.25,-260.37C303.64,-247.72 308.99,-219.35 313.37,-196.15"/>
</g>
<!-- g0 -->
<g id="node9" class="node">
<title>g0</title>
<polygon fill="none" stroke="black" points="156,-88 88.42,-34 223.58,-34 156,-88"/>
<text text-anchor="middle" x="156" y="-48.3" font-family="Times,serif" font-size="14.00">\(H_3\)</text>
</g>
<!-- 2&#45;&#45;g0 -->
<g id="edge9" class="edge">
<title>2&#45;&#45;g0:n</title>
<path fill="none" stroke="black" stroke-dasharray="5,2" d="M215.91,-152.45C199.57,-134.87 156,-88 156,-88"/>
</g>
<!-- g1 -->
<g id="node10" class="node">
<title>g1</title>
<polygon fill="none" stroke="black" points="309,-88 241.42,-34 376.58,-34 309,-88"/>
<text text-anchor="middle" x="309" y="-48.3" font-family="Times,serif" font-size="14.00">\(H_2\)</text>
</g>
<!-- 2&#45;&#45;g1 -->
<g id="edge10" class="edge">
<title>2&#45;&#45;g1:n</title>
<path fill="none" stroke="black" stroke-dasharray="5,2" d="M230.03,-152.45C251.57,-134.87 309,-88 309,-88"/>
</g>
</g>
</svg>
