<?xml version="1.0" encoding="UTF-8" standalone="no"?>
<!DOCTYPE svg PUBLIC "-//W3C//DTD SVG 1.1//EN"
 "http://www.w3.org/Graphics/SVG/1.1/DTD/svg11.dtd">
<!-- Generated by graphviz version 2.47.1 (20210417.1919)
 -->
<!-- Pages: 1 -->
<svg width="288pt" height="256pt"
 viewBox="0.00 0.00 288.00 255.73" xmlns="http://www.w3.org/2000/svg" xmlns:xlink="http://www.w3.org/1999/xlink">
<g id="graph0" class="graph" transform="scale(0.61 0.61) rotate(0) translate(4 416)">
<g id="clust1" class="cluster">
<title>cluster_1</title>
<path fill="#ffffff" fill-opacity="0.003922" stroke="black" d="M92,-8C92,-8 373,-8 373,-8 379,-8 385,-14 385,-20 385,-20 385,-271.5 385,-271.5 385,-277.5 379,-283.5 373,-283.5 373,-283.5 92,-283.5 92,-283.5 86,-283.5 80,-277.5 80,-271.5 80,-271.5 80,-20 80,-20 80,-14 86,-8 92,-8"/>
</g>
<!-- r -->
<g id="node1" class="node">
<title>r</title>
</g>
<!-- rl -->
<g id="node2" class="node">
<title>rl</title>
</g>
<!-- r&#45;&#45;rl -->
<!-- 0 -->
<g id="node5" class="node">
<title>0</title>
<text text-anchor="middle" x="232" y="-264.3" font-family="Times,serif" font-size="14.00">\(\n\)</text>
</g>
<!-- r&#45;&#45;0 -->
<!-- r2 -->
<g id="node3" class="node">
<title>r2</title>
</g>
<!-- r2r -->
<g id="node4" class="node">
<title>r2r</title>
</g>
<!-- r2&#45;&#45;r2r -->
<!-- r2&#45;&#45;0 -->
<g id="edge4" class="edge">
<title>r2&#45;&#45;0</title>
<path fill="none" stroke="black" stroke-dasharray="5,2" d="M266.83,-340C255.47,-316.84 241.56,-288.48 235.31,-275.75"/>
</g>
<!-- 1 -->
<g id="node6" class="node">
<title>1</title>
<text text-anchor="middle" x="167" y="-156.3" font-family="Times,serif" font-size="14.00">\(\mhll{\n}\)</text>
</g>
<!-- 0&#45;&#45;1 -->
<g id="edge6" class="edge">
<title>0&#45;&#45;1</title>
<path fill="none" stroke="black" d="M227.93,-260.37C216.26,-241.33 182.74,-186.66 171.06,-167.63"/>
</g>
<!-- g2 -->
<g id="node7" class="node">
<title>g2</title>
<polygon fill="none" stroke="black" points="297,-196 229.42,-142 364.58,-142 297,-196"/>
<text text-anchor="middle" x="297" y="-156.3" font-family="Times,serif" font-size="14.00">\(H_3\)</text>
</g>
<!-- 0&#45;&#45;g2 -->
<g id="edge5" class="edge">
<title>0&#45;&#45;g2:n</title>
<path fill="none" stroke="black" stroke-dasharray="5,2" d="M238,-260.45C254.09,-242.87 297,-196 297,-196"/>
</g>
<!-- g0 -->
<g id="node8" class="node">
<title>g0</title>
<polygon fill="none" stroke="black" points="156,-88 88.42,-34 223.58,-34 156,-88"/>
<text text-anchor="middle" x="156" y="-48.3" font-family="Times,serif" font-size="14.00">\(H_1\)</text>
</g>
<!-- 1&#45;&#45;g0 -->
<g id="edge7" class="edge">
<title>1&#45;&#45;g0:n</title>
<path fill="none" stroke="black" stroke-dasharray="5,2" d="M165.98,-152.45C163.26,-134.87 156,-88 156,-88"/>
</g>
<!-- g1 -->
<g id="node9" class="node">
<title>g1</title>
<polygon fill="none" stroke="black" points="309,-88 241.42,-34 376.58,-34 309,-88"/>
<text text-anchor="middle" x="309" y="-48.3" font-family="Times,serif" font-size="14.00">\(H_2\)</text>
</g>
<!-- 1&#45;&#45;g1 -->
<g id="edge8" class="edge">
<title>1&#45;&#45;g1:n</title>
<path fill="none" stroke="black" stroke-dasharray="5,2" d="M180.1,-152.45C215.26,-134.87 309,-88 309,-88"/>
</g>
</g>
</svg>
