<?xml version="1.0" encoding="UTF-8" standalone="no"?>
<!DOCTYPE svg PUBLIC "-//W3C//DTD SVG 1.1//EN"
 "http://www.w3.org/Graphics/SVG/1.1/DTD/svg11.dtd">
<!-- Generated by graphviz version 2.47.1 (20210417.1919)
 -->
<!-- Pages: 1 -->
<svg width="288pt" height="143pt"
 viewBox="0.00 0.00 288.00 142.69" xmlns="http://www.w3.org/2000/svg" xmlns:xlink="http://www.w3.org/1999/xlink">
<g id="graph0" class="graph" transform="scale(0.88 0.88) rotate(0) translate(4 159)">
<g id="clust1" class="cluster">
<title>cluster_1</title>
<path fill="#ffffff" fill-opacity="0.003922" stroke="black" d="M20,-8C20,-8 301,-8 301,-8 307,-8 313,-14 313,-20 313,-20 313,-135 313,-135 313,-141 307,-147 301,-147 301,-147 20,-147 20,-147 14,-147 8,-141 8,-135 8,-135 8,-20 8,-20 8,-14 14,-8 20,-8"/>
</g>
<!-- 0 -->
<g id="node1" class="node">
<title>0</title>
<text text-anchor="middle" x="160" y="-127.8" font-family="Times,serif" font-size="14.00">\(\mhll{\n}\)</text>
</g>
<!-- g0 -->
<g id="node2" class="node">
<title>g0</title>
<polygon fill="none" stroke="black" points="84,-88 16.42,-34 151.58,-34 84,-88"/>
<text text-anchor="middle" x="84" y="-48.3" font-family="Times,serif" font-size="14.00">\(H_1\)</text>
</g>
<!-- 0&#45;&#45;g0 -->
<g id="edge1" class="edge">
<title>0&#45;&#45;g0:n</title>
<path fill="none" stroke="black" stroke-dasharray="5,2" d="M148.12,-123.86C126.75,-111.91 84,-88 84,-88"/>
</g>
<!-- g1 -->
<g id="node3" class="node">
<title>g1</title>
<polygon fill="none" stroke="black" points="237,-88 169.42,-34 304.58,-34 237,-88"/>
<text text-anchor="middle" x="237" y="-48.3" font-family="Times,serif" font-size="14.00">\(H_2\)</text>
</g>
<!-- 0&#45;&#45;g1 -->
<g id="edge2" class="edge">
<title>0&#45;&#45;g1:n</title>
<path fill="none" stroke="black" stroke-dasharray="5,2" d="M172.03,-123.86C193.69,-111.91 237,-88 237,-88"/>
</g>
</g>
</svg>
