<?xml version="1.0" encoding="UTF-8" standalone="no"?>
<!DOCTYPE svg PUBLIC "-//W3C//DTD SVG 1.1//EN"
 "http://www.w3.org/Graphics/SVG/1.1/DTD/svg11.dtd">
<!-- Generated by graphviz version 2.47.1 (20210417.1919)
 -->
<!-- Pages: 1 -->
<svg width="248pt" height="239pt"
 viewBox="0.00 0.00 247.50 239.00" xmlns="http://www.w3.org/2000/svg" xmlns:xlink="http://www.w3.org/1999/xlink">
<g id="graph0" class="graph" transform="scale(1 1) rotate(0) translate(4 235)">
<!-- 0 -->
<g id="node1" class="node">
<title>0</title>
<text text-anchor="middle" x="146.5" y="-219.8" font-family="Times,serif" font-size="14.00">\(l\)</text>
</g>
<!-- 1 -->
<g id="node2" class="node">
<title>1</title>
<text text-anchor="middle" x="117.5" y="-158.3" font-family="Times,serif" font-size="14.00">\(s\)</text>
</g>
<!-- 0&#45;&#45;1 -->
<g id="edge1" class="edge">
<title>0&#45;&#45;1</title>
<path fill="none" stroke="black" d="M143.17,-215.67C137.58,-204.2 126.36,-181.17 120.79,-169.75"/>
</g>
<!-- 6 -->
<g id="node7" class="node">
<title>6</title>
</g>
<!-- 0&#45;&#45;6 -->
<g id="edge6" class="edge">
<title>0&#45;&#45;6</title>
<path fill="none" stroke="lightgreen" d="M149.94,-215.67C154.28,-207.07 161.9,-191.96 167.86,-180.13"/>
</g>
<!-- 2 -->
<g id="node3" class="node">
<title>2</title>
</g>
<!-- 1&#45;&#45;2 -->
<g id="edge2" class="edge">
<title>1&#45;&#45;2</title>
<path fill="none" stroke="lightgreen" d="M114.72,-154.29C110.35,-143.75 101.75,-122.99 95.59,-108.12"/>
</g>
<!-- 3 -->
<g id="node4" class="node">
<title>3</title>
<text text-anchor="middle" x="147.5" y="-86.3" font-family="Times,serif" font-size="14.00">\(o\)</text>
</g>
<!-- 1&#45;&#45;3 -->
<g id="edge3" class="edge">
<title>1&#45;&#45;3</title>
<path fill="none" stroke="black" d="M120.38,-154.29C126.13,-140.87 138.97,-110.9 144.68,-97.59"/>
</g>
<!-- 4 -->
<g id="node5" class="node">
<title>4</title>
<text text-anchor="middle" x="83.5" y="-14.3" font-family="Times,serif" font-size="14.00">\(\mhll{\pointed{}}\)</text>
</g>
<!-- 3&#45;&#45;4 -->
<g id="edge4" class="edge">
<title>3&#45;&#45;4</title>
<path fill="none" stroke="lightgreen" d="M141.36,-82.29C131.73,-71.75 112.75,-50.99 99.15,-36.12"/>
</g>
<!-- 5 -->
<g id="node6" class="node">
<title>5</title>
</g>
<!-- 3&#45;&#45;5 -->
<g id="edge5" class="edge">
<title>3&#45;&#45;5</title>
<path fill="none" stroke="lightgreen" d="M153.73,-82.29C163.52,-71.75 182.8,-50.99 196.61,-36.12"/>
</g>
</g>
</svg>
