<?xml version="1.0" encoding="UTF-8" standalone="no"?>
<!DOCTYPE svg PUBLIC "-//W3C//DTD SVG 1.1//EN"
 "http://www.w3.org/Graphics/SVG/1.1/DTD/svg11.dtd">
<!-- Generated by graphviz version 2.47.1 (20210417.1919)
 -->
<!-- Pages: 1 -->
<svg width="288pt" height="183pt"
 viewBox="0.00 0.00 288.00 182.63" xmlns="http://www.w3.org/2000/svg" xmlns:xlink="http://www.w3.org/1999/xlink">
<g id="graph0" class="graph" transform="scale(0.7 0.7) rotate(0) translate(4 256)">
<polygon fill="white" stroke="transparent" points="-4,4 -4,-256 406,-256 406,4 -4,4"/>
<!-- r -->
<g id="node1" class="node">
<title>r</title>
</g>
<!-- 1 -->
<g id="node2" class="node">
<title>1</title>
<text text-anchor="middle" x="165" y="-158.3" font-family="Times,serif" font-size="14.00">\(\phantom{\weighted{2}}\n\weighted{2}\)</text>
</g>
<!-- r&#45;&#45;1 -->
<g id="edge2" class="edge">
<title>r&#45;&#45;1</title>
<path fill="none" stroke="black" stroke-dasharray="5,2" d="M244.31,-215.88C228.04,-205.03 207.07,-191.05 190.78,-180.19"/>
</g>
<!-- rr -->
<g id="node7" class="node">
<title>rr</title>
</g>
<!-- r&#45;&#45;rr -->
<!-- s -->
<g id="node3" class="node">
<title>s</title>
<text text-anchor="middle" x="113" y="-86.3" font-family="Times,serif" font-size="14.00">\(\pointed{s}\)</text>
</g>
<!-- 1&#45;&#45;s -->
<g id="edge3" class="edge">
<title>1&#45;&#45;s</title>
<path fill="none" stroke="black" d="M152.15,-143.7C144.09,-132.85 133.74,-118.92 125.71,-108.1"/>
</g>
<!-- t -->
<g id="node4" class="node">
<title>t</title>
<text text-anchor="middle" x="218" y="-86.3" font-family="Times,serif" font-size="14.00">\(t&#39;&#39;\)</text>
</g>
<!-- 1&#45;&#45;t -->
<g id="edge4" class="edge">
<title>1&#45;&#45;t</title>
<path fill="none" stroke="black" d="M178.1,-143.7C186.32,-132.85 196.86,-118.92 205.05,-108.1"/>
</g>
<!-- tl -->
<g id="node5" class="node">
<title>tl</title>
</g>
<!-- t&#45;&#45;tl -->
<g id="edge5" class="edge">
<title>t&#45;&#45;tl</title>
<path fill="none" stroke="black" d="M209.1,-71.7C203.52,-60.85 196.36,-46.92 190.8,-36.1"/>
</g>
<!-- tr -->
<g id="node6" class="node">
<title>tr</title>
</g>
<!-- t&#45;&#45;tr -->
<g id="edge6" class="edge">
<title>t&#45;&#45;tr</title>
<path fill="none" stroke="black" d="M226.9,-71.7C232.48,-60.85 239.64,-46.92 245.2,-36.1"/>
</g>
</g>
</svg>
