<?xml version="1.0" encoding="UTF-8" standalone="no"?>
<!DOCTYPE svg PUBLIC "-//W3C//DTD SVG 1.1//EN"
 "http://www.w3.org/Graphics/SVG/1.1/DTD/svg11.dtd">
<!-- Generated by graphviz version 2.47.1 (20210417.1919)
 -->
<!-- Pages: 1 -->
<svg width="236pt" height="260pt"
 viewBox="0.00 0.00 236.00 260.00" xmlns="http://www.w3.org/2000/svg" xmlns:xlink="http://www.w3.org/1999/xlink">
<g id="graph0" class="graph" transform="scale(1 1) rotate(0) translate(4 256)">
<polygon fill="white" stroke="transparent" points="-4,4 -4,-256 232,-256 232,4 -4,4"/>
<!-- r -->
<g id="node1" class="node">
<title>r</title>
</g>
<!-- 1 -->
<g id="node2" class="node">
<title>1</title>
<text text-anchor="middle" x="112" y="-158.3" font-family="Times,serif" font-size="14.00">\(2\)</text>
</g>
<!-- r&#45;&#45;1 -->
<g id="edge2" class="edge">
<title>r&#45;&#45;1</title>
<path fill="none" stroke="black" stroke-dasharray="5,2" d="M139.1,-215.7C133.52,-204.85 126.36,-190.92 120.8,-180.1"/>
</g>
<!-- rr -->
<g id="node7" class="node">
<title>rr</title>
</g>
<!-- r&#45;&#45;rr -->
<!-- s -->
<g id="node3" class="node">
<title>s</title>
<text text-anchor="middle" x="60" y="-86.3" font-family="Times,serif" font-size="14.00">\(\pointed{s}\)</text>
</g>
<!-- 1&#45;&#45;s -->
<g id="edge3" class="edge">
<title>1&#45;&#45;s</title>
<path fill="none" stroke="black" d="M99.15,-143.7C91.09,-132.85 80.74,-118.92 72.71,-108.1"/>
</g>
<!-- t -->
<g id="node4" class="node">
<title>t</title>
<text text-anchor="middle" x="165" y="-86.3" font-family="Times,serif" font-size="14.00">\(t&#39;&#39;\)</text>
</g>
<!-- 1&#45;&#45;t -->
<g id="edge4" class="edge">
<title>1&#45;&#45;t</title>
<path fill="none" stroke="black" d="M125.1,-143.7C133.32,-132.85 143.86,-118.92 152.05,-108.1"/>
</g>
<!-- tl -->
<g id="node5" class="node">
<title>tl</title>
</g>
<!-- t&#45;&#45;tl -->
<g id="edge5" class="edge">
<title>t&#45;&#45;tl</title>
<path fill="none" stroke="black" stroke-dasharray="5,2" d="M156.1,-71.7C150.52,-60.85 143.36,-46.92 137.8,-36.1"/>
</g>
<!-- tr -->
<g id="node6" class="node">
<title>tr</title>
</g>
<!-- t&#45;&#45;tr -->
<g id="edge6" class="edge">
<title>t&#45;&#45;tr</title>
<path fill="none" stroke="black" stroke-dasharray="5,2" d="M173.9,-71.7C179.48,-60.85 186.64,-46.92 192.2,-36.1"/>
</g>
</g>
</svg>
