<?xml version="1.0" encoding="UTF-8" standalone="no"?>
<!DOCTYPE svg PUBLIC "-//W3C//DTD SVG 1.1//EN"
 "http://www.w3.org/Graphics/SVG/1.1/DTD/svg11.dtd">
<!-- Generated by graphviz version 2.47.1 (20210417.1919)
 -->
<!-- Pages: 1 -->
<svg width="206pt" height="188pt"
 viewBox="0.00 0.00 206.00 188.00" xmlns="http://www.w3.org/2000/svg" xmlns:xlink="http://www.w3.org/1999/xlink">
<g id="graph0" class="graph" transform="scale(1 1) rotate(0) translate(4 184)">
<polygon fill="white" stroke="transparent" points="-4,4 -4,-184 202,-184 202,4 -4,4"/>
<!-- r -->
<g id="node1" class="node">
<title>r</title>
</g>
<!-- 0 -->
<g id="node2" class="node">
<title>0</title>
<text text-anchor="middle" x="99" y="-86.3" font-family="Times,serif" font-size="14.00">\(\n\)</text>
</g>
<!-- r&#45;&#45;0 -->
<g id="edge1" class="edge">
<title>r&#45;&#45;0</title>
<path fill="none" stroke="black" stroke-dasharray="5,2" d="M126.1,-143.7C120.52,-132.85 113.36,-118.92 107.8,-108.1"/>
</g>
<!-- rr -->
<g id="node6" class="node">
<title>rr</title>
</g>
<!-- r&#45;&#45;rr -->
<!-- 1 -->
<g id="node3" class="node">
<title>1</title>
<polygon fill="none" stroke="black" points="27,-36 0,-9 54,-9 27,-36"/>
</g>
<!-- 0&#45;&#45;1 -->
<g id="edge3" class="edge">
<title>0&#45;&#45;1:n</title>
<path fill="none" stroke="black" d="M75.82,-71.94C54.77,-56.45 27,-36 27,-36"/>
</g>
<!-- 2 -->
<g id="node4" class="node">
<title>2</title>
<polygon fill="none" stroke="black" points="99,-36 72,-9 126,-9 99,-36"/>
</g>
<!-- 0&#45;&#45;2 -->
<g id="edge4" class="edge">
<title>0&#45;&#45;2:n</title>
<path fill="none" stroke="black" d="M99,-71.94C99,-56.45 99,-36 99,-36"/>
</g>
<!-- 3 -->
<g id="node5" class="node">
<title>3</title>
<polygon fill="none" stroke="black" points="171,-36 144,-9 198,-9 171,-36"/>
</g>
<!-- 0&#45;&#45;3 -->
<g id="edge5" class="edge">
<title>0&#45;&#45;3:n</title>
<path fill="none" stroke="black" d="M122.18,-71.94C143.23,-56.45 171,-36 171,-36"/>
</g>
</g>
</svg>
