<?xml version="1.0" encoding="UTF-8" standalone="no"?>
<!DOCTYPE svg PUBLIC "-//W3C//DTD SVG 1.1//EN"
 "http://www.w3.org/Graphics/SVG/1.1/DTD/svg11.dtd">
<!-- Generated by graphviz version 2.47.1 (20210417.1919)
 -->
<!-- Pages: 1 -->
<svg width="288pt" height="183pt"
 viewBox="0.00 0.00 288.00 182.63" xmlns="http://www.w3.org/2000/svg" xmlns:xlink="http://www.w3.org/1999/xlink">
<g id="graph0" class="graph" transform="scale(0.7 0.7) rotate(0) translate(4 256)">
<polygon fill="white" stroke="transparent" points="-4,4 -4,-256 406,-256 406,4 -4,4"/>
<!-- r -->
<g id="node1" class="node">
<title>r</title>
</g>
<!-- 1 -->
<g id="node2" class="node">
<title>1</title>
<text text-anchor="middle" x="165" y="-158.3" font-family="Times,serif" font-size="14.00">\(\phantom{\weighted{1}}\n\weighted{1}\)</text>
</g>
<!-- r&#45;&#45;1 -->
<g id="edge2" class="edge">
<title>r&#45;&#45;1</title>
<path fill="none" stroke="black" stroke-dasharray="5,2" d="M244.31,-215.88C228.04,-205.03 207.07,-191.05 190.78,-180.19"/>
</g>
<!-- rr -->
<g id="node7" class="node">
<title>rr</title>
</g>
<!-- r&#45;&#45;rr -->
<!-- 2 -->
<g id="node3" class="node">
<title>2</title>
<text text-anchor="middle" x="114" y="-86.3" font-family="Times,serif" font-size="14.00">\(\pointed{}\)</text>
</g>
<!-- 1&#45;&#45;2 -->
<g id="edge6" class="edge">
<title>1&#45;&#45;2</title>
<path fill="none" stroke="black" d="M152.39,-143.7C144.49,-132.85 134.34,-118.92 126.46,-108.1"/>
</g>
<!-- s -->
<g id="node4" class="node">
<title>s</title>
<text text-anchor="middle" x="216" y="-86.3" font-family="Times,serif" font-size="14.00">\(s\)</text>
</g>
<!-- 1&#45;&#45;s -->
<g id="edge3" class="edge">
<title>1&#45;&#45;s</title>
<path fill="none" stroke="black" d="M177.61,-143.7C185.51,-132.85 195.66,-118.92 203.54,-108.1"/>
</g>
<!-- sl -->
<g id="node5" class="node">
<title>sl</title>
</g>
<!-- s&#45;&#45;sl -->
<g id="edge4" class="edge">
<title>s&#45;&#45;sl</title>
<path fill="none" stroke="black" stroke-dasharray="5,2" d="M207.1,-71.7C201.52,-60.85 194.36,-46.92 188.8,-36.1"/>
</g>
<!-- sr -->
<g id="node6" class="node">
<title>sr</title>
</g>
<!-- s&#45;&#45;sr -->
<g id="edge5" class="edge">
<title>s&#45;&#45;sr</title>
<path fill="none" stroke="black" stroke-dasharray="5,2" d="M224.9,-71.7C230.48,-60.85 237.64,-46.92 243.2,-36.1"/>
</g>
</g>
</svg>
