<?xml version="1.0" encoding="UTF-8" standalone="no"?>
<!DOCTYPE svg PUBLIC "-//W3C//DTD SVG 1.1//EN"
 "http://www.w3.org/Graphics/SVG/1.1/DTD/svg11.dtd">
<!-- Generated by graphviz version 2.47.1 (20210417.1919)
 -->
<!-- Pages: 1 -->
<svg width="230pt" height="260pt"
 viewBox="0.00 0.00 229.50 260.00" xmlns="http://www.w3.org/2000/svg" xmlns:xlink="http://www.w3.org/1999/xlink">
<g id="graph0" class="graph" transform="scale(1 1) rotate(0) translate(4 256)">
<polygon fill="white" stroke="transparent" points="-4,4 -4,-256 225.5,-256 225.5,4 -4,4"/>
<!-- r -->
<g id="node1" class="node">
<title>r</title>
</g>
<!-- 1 -->
<g id="node2" class="node">
<title>1</title>
<text text-anchor="middle" x="114" y="-158.3" font-family="Times,serif" font-size="14.00">\(1\)</text>
</g>
<!-- r&#45;&#45;1 -->
<g id="edge2" class="edge">
<title>r&#45;&#45;1</title>
<path fill="none" stroke="black" stroke-dasharray="5,2" d="M141.1,-215.7C135.52,-204.85 128.36,-190.92 122.8,-180.1"/>
</g>
<!-- rr -->
<g id="node7" class="node">
<title>rr</title>
</g>
<!-- r&#45;&#45;rr -->
<!-- s -->
<g id="node3" class="node">
<title>s</title>
<text text-anchor="middle" x="63" y="-86.3" font-family="Times,serif" font-size="14.00">\(s\)</text>
</g>
<!-- 1&#45;&#45;s -->
<g id="edge3" class="edge">
<title>1&#45;&#45;s</title>
<path fill="none" stroke="black" d="M101.39,-143.7C93.49,-132.85 83.34,-118.92 75.46,-108.1"/>
</g>
<!-- 2 -->
<g id="node6" class="node">
<title>2</title>
<text text-anchor="middle" x="165" y="-86.3" font-family="Times,serif" font-size="14.00">\(\pointed{}\)</text>
</g>
<!-- 1&#45;&#45;2 -->
<g id="edge6" class="edge">
<title>1&#45;&#45;2</title>
<path fill="none" stroke="black" d="M126.61,-143.7C134.51,-132.85 144.66,-118.92 152.54,-108.1"/>
</g>
<!-- sl -->
<g id="node4" class="node">
<title>sl</title>
</g>
<!-- s&#45;&#45;sl -->
<g id="edge4" class="edge">
<title>s&#45;&#45;sl</title>
<path fill="none" stroke="black" stroke-dasharray="5,2" d="M54.1,-71.7C48.52,-60.85 41.36,-46.92 35.8,-36.1"/>
</g>
<!-- sr -->
<g id="node5" class="node">
<title>sr</title>
</g>
<!-- s&#45;&#45;sr -->
<g id="edge5" class="edge">
<title>s&#45;&#45;sr</title>
<path fill="none" stroke="black" stroke-dasharray="5,2" d="M71.9,-71.7C77.48,-60.85 84.64,-46.92 90.2,-36.1"/>
</g>
</g>
</svg>
