<?xml version="1.0" encoding="UTF-8" standalone="no"?>
<!DOCTYPE svg PUBLIC "-//W3C//DTD SVG 1.1//EN"
 "http://www.w3.org/Graphics/SVG/1.1/DTD/svg11.dtd">
<!-- Generated by graphviz version 2.47.1 (20210417.1919)
 -->
<!-- Pages: 1 -->
<svg width="217pt" height="239pt"
 viewBox="0.00 0.00 216.50 239.00" xmlns="http://www.w3.org/2000/svg" xmlns:xlink="http://www.w3.org/1999/xlink">
<g id="graph0" class="graph" transform="scale(1 1) rotate(0) translate(4 235)">
<!-- 0 -->
<g id="node1" class="node">
<title>0</title>
<text text-anchor="middle" x="129.5" y="-219.8" font-family="Times,serif" font-size="14.00">\(l\)</text>
</g>
<!-- 1 -->
<g id="node2" class="node">
<title>1</title>
<text text-anchor="middle" x="100.5" y="-158.3" font-family="Times,serif" font-size="14.00">\(s\)</text>
</g>
<!-- 0&#45;&#45;1 -->
<g id="edge1" class="edge">
<title>0&#45;&#45;1</title>
<path fill="none" stroke="black" d="M126.17,-215.67C120.58,-204.2 109.36,-181.17 103.79,-169.75"/>
</g>
<!-- 6 -->
<g id="node7" class="node">
<title>6</title>
</g>
<!-- 0&#45;&#45;6 -->
<g id="edge6" class="edge">
<title>0&#45;&#45;6</title>
<path fill="none" stroke="lightgreen" d="M132.94,-215.67C137.28,-207.07 144.9,-191.96 150.86,-180.13"/>
</g>
<!-- 2 -->
<g id="node3" class="node">
<title>2</title>
<text text-anchor="middle" x="56.5" y="-86.3" font-family="Times,serif" font-size="14.00">\(\pointed{}\)</text>
</g>
<!-- 1&#45;&#45;2 -->
<g id="edge2" class="edge">
<title>1&#45;&#45;2</title>
<path fill="none" stroke="lightgreen" d="M96.28,-154.29C89.66,-143.75 76.61,-122.99 67.26,-108.12"/>
</g>
<!-- 3 -->
<g id="node4" class="node">
<title>3</title>
<text text-anchor="middle" x="145.5" y="-86.3" font-family="Times,serif" font-size="14.00">\(o\)</text>
</g>
<!-- 1&#45;&#45;3 -->
<g id="edge3" class="edge">
<title>1&#45;&#45;3</title>
<path fill="none" stroke="black" d="M104.81,-154.29C113.44,-140.87 132.71,-110.9 141.26,-97.59"/>
</g>
<!-- 4 -->
<g id="node5" class="node">
<title>4</title>
</g>
<!-- 3&#45;&#45;4 -->
<g id="edge4" class="edge">
<title>3&#45;&#45;4</title>
<path fill="none" stroke="lightgreen" d="M142.05,-82.29C136.63,-71.75 125.95,-50.99 118.3,-36.12"/>
</g>
<!-- 5 -->
<g id="node6" class="node">
<title>5</title>
</g>
<!-- 3&#45;&#45;5 -->
<g id="edge5" class="edge">
<title>3&#45;&#45;5</title>
<path fill="none" stroke="lightgreen" d="M148.95,-82.29C154.37,-71.75 165.05,-50.99 172.7,-36.12"/>
</g>
</g>
</svg>
