<?xml version="1.0" encoding="UTF-8" standalone="no"?>
<!DOCTYPE svg PUBLIC "-//W3C//DTD SVG 1.1//EN"
 "http://www.w3.org/Graphics/SVG/1.1/DTD/svg11.dtd">
<!-- Generated by graphviz version 2.47.1 (20210417.1919)
 -->
<!-- Pages: 1 -->
<svg width="202pt" height="239pt"
 viewBox="0.00 0.00 201.50 239.00" xmlns="http://www.w3.org/2000/svg" xmlns:xlink="http://www.w3.org/1999/xlink">
<g id="graph0" class="graph" transform="scale(1 1) rotate(0) translate(4 235)">
<!-- 0 -->
<g id="node1" class="node">
<title>0</title>
<text text-anchor="middle" x="107.5" y="-219.8" font-family="Times,serif" font-size="14.00">\(s\)</text>
</g>
<!-- 1 -->
<g id="node2" class="node">
<title>1</title>
</g>
<!-- 0&#45;&#45;1 -->
<g id="edge1" class="edge">
<title>0&#45;&#45;1</title>
<path fill="none" stroke="lightgreen" d="M104.17,-215.67C99.98,-207.07 92.62,-191.96 86.85,-180.13"/>
</g>
<!-- 2 -->
<g id="node3" class="node">
<title>2</title>
<text text-anchor="middle" x="136.5" y="-158.3" font-family="Times,serif" font-size="14.00">\(l\)</text>
</g>
<!-- 0&#45;&#45;2 -->
<g id="edge2" class="edge">
<title>0&#45;&#45;2</title>
<path fill="none" stroke="black" d="M110.83,-215.67C116.42,-204.2 127.64,-181.17 133.21,-169.75"/>
</g>
<!-- 3 -->
<g id="node4" class="node">
<title>3</title>
<text text-anchor="middle" x="107.5" y="-86.3" font-family="Times,serif" font-size="14.00">\(o\)</text>
</g>
<!-- 2&#45;&#45;3 -->
<g id="edge3" class="edge">
<title>2&#45;&#45;3</title>
<path fill="none" stroke="black" d="M133.72,-154.29C128.16,-140.87 115.75,-110.9 110.23,-97.59"/>
</g>
<!-- 6 -->
<g id="node7" class="node">
<title>6</title>
</g>
<!-- 2&#45;&#45;6 -->
<g id="edge6" class="edge">
<title>2&#45;&#45;6</title>
<path fill="none" stroke="lightgreen" d="M139.38,-154.29C143.89,-143.75 152.79,-122.99 159.16,-108.12"/>
</g>
<!-- 4 -->
<g id="node5" class="node">
<title>4</title>
<text text-anchor="middle" x="56.5" y="-14.3" font-family="Times,serif" font-size="14.00">\(\pointed{}\)</text>
</g>
<!-- 3&#45;&#45;4 -->
<g id="edge4" class="edge">
<title>3&#45;&#45;4</title>
<path fill="none" stroke="lightgreen" d="M102.61,-82.29C94.93,-71.75 79.8,-50.99 68.97,-36.12"/>
</g>
<!-- 5 -->
<g id="node6" class="node">
<title>5</title>
</g>
<!-- 3&#45;&#45;5 -->
<g id="edge5" class="edge">
<title>3&#45;&#45;5</title>
<path fill="none" stroke="lightgreen" d="M112.39,-82.29C120.07,-71.75 135.2,-50.99 146.03,-36.12"/>
</g>
</g>
</svg>
