<?xml version="1.0" encoding="UTF-8" standalone="no"?>
<!DOCTYPE svg PUBLIC "-//W3C//DTD SVG 1.1//EN"
 "http://www.w3.org/Graphics/SVG/1.1/DTD/svg11.dtd">
<!-- Generated by graphviz version 2.47.1 (20210417.1919)
 -->
<!-- Pages: 1 -->
<svg width="278pt" height="146pt"
 viewBox="0.00 0.00 278.00 146.00" xmlns="http://www.w3.org/2000/svg" xmlns:xlink="http://www.w3.org/1999/xlink">
<g id="graph0" class="graph" transform="scale(1 1) rotate(0) translate(4 142)">
<polygon fill="white" stroke="transparent" points="-4,4 -4,-142 274,-142 274,4 -4,4"/>
<!-- 0 -->
<g id="node1" class="node">
<title>0</title>
<text text-anchor="middle" x="135" y="-126.8" font-family="Times,serif" font-size="14.00">a</text>
</g>
<!-- 1 -->
<g id="node2" class="node">
<title>1</title>
<text text-anchor="middle" x="99" y="-75.8" font-family="Times,serif" font-size="14.00">o</text>
</g>
<!-- 0&#45;&#45;1 -->
<g id="edge1" class="edge">
<title>0&#45;&#45;1</title>
<path fill="none" stroke="black" d="M130.29,-123.09C123.36,-113.65 110.47,-96.11 103.59,-86.75"/>
</g>
<!-- 4 -->
<g id="node5" class="node">
<title>4</title>
<text text-anchor="middle" x="171" y="-75.8" font-family="Times,serif" font-size="14.00">o</text>
</g>
<!-- 0&#45;&#45;4 -->
<g id="edge4" class="edge">
<title>0&#45;&#45;4</title>
<path fill="none" stroke="black" d="M139.71,-123.09C146.64,-113.65 159.53,-96.11 166.41,-86.75"/>
</g>
<!-- 2 -->
<g id="node3" class="node">
<title>2</title>
<text text-anchor="middle" x="27" y="-14.3" font-family="Times,serif" font-size="14.00">*</text>
</g>
<!-- 1&#45;&#45;2 -->
<g id="edge2" class="edge">
<title>1&#45;&#45;2</title>
<path fill="none" stroke="lightgreen" d="M94.28,-74.6C85.02,-66.94 63.98,-49.56 47.87,-36.25"/>
</g>
<!-- 3 -->
<g id="node4" class="node">
<title>3</title>
</g>
<!-- 1&#45;&#45;3 -->
<g id="edge3" class="edge">
<title>1&#45;&#45;3</title>
<path fill="none" stroke="lightgreen" d="M99,-71.67C99,-63.07 99,-47.96 99,-36.13"/>
</g>
<!-- 5 -->
<g id="node6" class="node">
<title>5</title>
</g>
<!-- 4&#45;&#45;5 -->
<g id="edge5" class="edge">
<title>4&#45;&#45;5</title>
<path fill="none" stroke="lightgreen" d="M171,-71.67C171,-63.07 171,-47.96 171,-36.13"/>
</g>
<!-- 6 -->
<g id="node7" class="node">
<title>6</title>
</g>
<!-- 4&#45;&#45;6 -->
<g id="edge6" class="edge">
<title>4&#45;&#45;6</title>
<path fill="none" stroke="lightgreen" d="M175.72,-74.6C184.98,-66.94 206.02,-49.56 222.13,-36.25"/>
</g>
</g>
</svg>
