<?xml version="1.0" encoding="UTF-8" standalone="no"?>
<!DOCTYPE svg PUBLIC "-//W3C//DTD SVG 1.1//EN"
 "http://www.w3.org/Graphics/SVG/1.1/DTD/svg11.dtd">
<!-- Generated by graphviz version 2.47.1 (20210417.1919)
 -->
<!-- Pages: 1 -->
<svg width="246pt" height="239pt"
 viewBox="0.00 0.00 245.50 239.00" xmlns="http://www.w3.org/2000/svg" xmlns:xlink="http://www.w3.org/1999/xlink">
<g id="graph0" class="graph" transform="scale(1 1) rotate(0) translate(4 235)">
<!-- 0 -->
<g id="node1" class="node">
<title>0</title>
<text text-anchor="middle" x="100.5" y="-219.8" font-family="Times,serif" font-size="14.00">\(s\)</text>
</g>
<!-- 1 -->
<g id="node2" class="node">
<title>1</title>
<text text-anchor="middle" x="56.5" y="-158.3" font-family="Times,serif" font-size="14.00">\(\pointed{}\)</text>
</g>
<!-- 0&#45;&#45;1 -->
<g id="edge1" class="edge">
<title>0&#45;&#45;1</title>
<path fill="none" stroke="lightgreen" d="M95.45,-215.67C89.09,-207.07 77.92,-191.96 69.17,-180.13"/>
</g>
<!-- 2 -->
<g id="node3" class="node">
<title>2</title>
<text text-anchor="middle" x="145.5" y="-158.3" font-family="Times,serif" font-size="14.00">\(s\)</text>
</g>
<!-- 0&#45;&#45;2 -->
<g id="edge2" class="edge">
<title>0&#45;&#45;2</title>
<path fill="none" stroke="black" d="M105.66,-215.67C114.34,-204.2 131.76,-181.17 140.4,-169.75"/>
</g>
<!-- 3 -->
<g id="node4" class="node">
<title>3</title>
</g>
<!-- 2&#45;&#45;3 -->
<g id="edge3" class="edge">
<title>2&#45;&#45;3</title>
<path fill="none" stroke="lightgreen" d="M142.62,-154.29C138.11,-143.75 129.21,-122.99 122.84,-108.12"/>
</g>
<!-- 4 -->
<g id="node5" class="node">
<title>4</title>
<text text-anchor="middle" x="174.5" y="-86.3" font-family="Times,serif" font-size="14.00">\(o\)</text>
</g>
<!-- 2&#45;&#45;4 -->
<g id="edge4" class="edge">
<title>2&#45;&#45;4</title>
<path fill="none" stroke="black" d="M148.28,-154.29C153.84,-140.87 166.25,-110.9 171.77,-97.59"/>
</g>
<!-- 5 -->
<g id="node6" class="node">
<title>5</title>
</g>
<!-- 4&#45;&#45;5 -->
<g id="edge5" class="edge">
<title>4&#45;&#45;5</title>
<path fill="none" stroke="lightgreen" d="M171.05,-82.29C165.63,-71.75 154.95,-50.99 147.3,-36.12"/>
</g>
<!-- 6 -->
<g id="node7" class="node">
<title>6</title>
</g>
<!-- 4&#45;&#45;6 -->
<g id="edge6" class="edge">
<title>4&#45;&#45;6</title>
<path fill="none" stroke="lightgreen" d="M177.95,-82.29C183.37,-71.75 194.05,-50.99 201.7,-36.12"/>
</g>
</g>
</svg>
