<?xml version="1.0" encoding="UTF-8" standalone="no"?>
<!DOCTYPE svg PUBLIC "-//W3C//DTD SVG 1.1//EN"
 "http://www.w3.org/Graphics/SVG/1.1/DTD/svg11.dtd">
<!-- Generated by graphviz version 2.47.1 (20210417.1919)
 -->
<!-- Pages: 1 -->
<svg width="262pt" height="188pt"
 viewBox="0.00 0.00 262.00 188.00" xmlns="http://www.w3.org/2000/svg" xmlns:xlink="http://www.w3.org/1999/xlink">
<g id="graph0" class="graph" transform="scale(1 1) rotate(0) translate(4 184)">
<g id="clust1" class="cluster">
<title>cluster_1</title>
<path fill="#ffffff" fill-opacity="0.003922" stroke="black" d="M92.33,-20.5C92.33,-20.5 161.67,-20.5 161.67,-20.5 166.83,-20.5 172,-25.67 172,-30.83 172,-30.83 172,-41.17 172,-41.17 172,-46.33 166.83,-51.5 161.67,-51.5 161.67,-51.5 92.33,-51.5 92.33,-51.5 87.17,-51.5 82,-46.33 82,-41.17 82,-41.17 82,-30.83 82,-30.83 82,-25.67 87.17,-20.5 92.33,-20.5"/>
</g>
<!-- r -->
<g id="node1" class="node">
<title>r</title>
</g>
<!-- rl -->
<g id="node2" class="node">
<title>rl</title>
</g>
<!-- r&#45;&#45;rl -->
<!-- 0 -->
<g id="node5" class="node">
<title>0</title>
<text text-anchor="middle" x="127" y="-32.3" font-family="Times,serif" font-size="14.00">\(\mhll{}\)</text>
</g>
<!-- r&#45;&#45;0 -->
<!-- r2 -->
<g id="node3" class="node">
<title>r2</title>
</g>
<!-- r2r -->
<g id="node4" class="node">
<title>r2r</title>
</g>
<!-- r2&#45;&#45;r2r -->
<!-- r2&#45;&#45;0 -->
<g id="edge4" class="edge">
<title>r2&#45;&#45;0</title>
<path fill="none" stroke="lightgreen" d="M157.14,-108C147.31,-84.84 135.27,-56.48 129.87,-43.75"/>
</g>
</g>
</svg>
