<?xml version="1.0" encoding="UTF-8" standalone="no"?>
<!DOCTYPE svg PUBLIC "-//W3C//DTD SVG 1.1//EN"
 "http://www.w3.org/Graphics/SVG/1.1/DTD/svg11.dtd">
<!-- Generated by graphviz version 2.47.1 (20210417.1919)
 -->
<!-- Pages: 1 -->
<svg width="288pt" height="247pt"
 viewBox="0.00 0.00 288.00 247.36" xmlns="http://www.w3.org/2000/svg" xmlns:xlink="http://www.w3.org/1999/xlink">
<g id="graph0" class="graph" transform="scale(0.59 0.59) rotate(0) translate(4 416)">
<g id="clust1" class="cluster">
<title>cluster_1</title>
<path fill="#ffffff" fill-opacity="0.003922" stroke="black" d="M92,-8C92,-8 389,-8 389,-8 395,-8 401,-14 401,-20 401,-20 401,-271.5 401,-271.5 401,-277.5 395,-283.5 389,-283.5 389,-283.5 92,-283.5 92,-283.5 86,-283.5 80,-277.5 80,-271.5 80,-271.5 80,-20 80,-20 80,-14 86,-8 92,-8"/>
</g>
<!-- r -->
<g id="node1" class="node">
<title>r</title>
</g>
<!-- rl -->
<g id="node2" class="node">
<title>rl</title>
</g>
<!-- r&#45;&#45;rl -->
<!-- 0 -->
<g id="node5" class="node">
<title>0</title>
<text text-anchor="middle" x="256" y="-264.3" font-family="Times,serif" font-size="14.00">\(l\)</text>
</g>
<!-- r&#45;&#45;0 -->
<!-- r2 -->
<g id="node3" class="node">
<title>r2</title>
</g>
<!-- r2r -->
<g id="node4" class="node">
<title>r2r</title>
</g>
<!-- r2&#45;&#45;r2r -->
<!-- r2&#45;&#45;0 -->
<g id="edge4" class="edge">
<title>r2&#45;&#45;0</title>
<path fill="none" stroke="black" stroke-dasharray="5,2" d="M290.83,-340C279.47,-316.84 265.56,-288.48 259.31,-275.75"/>
</g>
<!-- 1 -->
<g id="node6" class="node">
<title>1</title>
<text text-anchor="middle" x="221" y="-156.3" font-family="Times,serif" font-size="14.00">\(\n\)</text>
</g>
<!-- 0&#45;&#45;1 -->
<g id="edge5" class="edge">
<title>0&#45;&#45;1</title>
<path fill="none" stroke="black" d="M253.81,-260.37C247.53,-241.33 229.47,-186.66 223.19,-167.63"/>
</g>
<!-- 3 -->
<g id="node7" class="node">
<title>3</title>
</g>
<!-- 0&#45;&#45;3 -->
<g id="edge6" class="edge">
<title>0&#45;&#45;3</title>
<path fill="none" stroke="lightgreen" d="M258.25,-260.37C262.55,-247.72 272.18,-219.35 280.06,-196.15"/>
</g>
<!-- g2 -->
<g id="node8" class="node">
<title>g2</title>
<polygon fill="none" stroke="black" points="156,-88 88.42,-34 223.58,-34 156,-88"/>
<text text-anchor="middle" x="156" y="-48.3" font-family="Times,serif" font-size="14.00">\(H_1\)</text>
</g>
<!-- 1&#45;&#45;g2 -->
<g id="edge7" class="edge">
<title>1&#45;&#45;g2:n</title>
<path fill="none" stroke="black" stroke-dasharray="5,2" d="M215,-152.45C198.91,-134.87 156,-88 156,-88"/>
</g>
<!-- 2 -->
<g id="node9" class="node">
<title>2</title>
<text text-anchor="middle" x="317" y="-48.3" font-family="Times,serif" font-size="14.00">\(\mhll{\pointed{}}\)</text>
</g>
<!-- 1&#45;&#45;2 -->
<g id="edge8" class="edge">
<title>1&#45;&#45;2</title>
<path fill="none" stroke="lightgreen" d="M227.01,-152.37C244.25,-133.33 293.76,-78.66 311,-59.63"/>
</g>
</g>
</svg>
