<?xml version="1.0" encoding="UTF-8" standalone="no"?>
<!DOCTYPE svg PUBLIC "-//W3C//DTD SVG 1.1//EN"
 "http://www.w3.org/Graphics/SVG/1.1/DTD/svg11.dtd">
<!-- Generated by graphviz version 2.47.1 (20210417.1919)
 -->
<!-- Pages: 1 -->
<svg width="288pt" height="247pt"
 viewBox="0.00 0.00 288.00 247.36" xmlns="http://www.w3.org/2000/svg" xmlns:xlink="http://www.w3.org/1999/xlink">
<g id="graph0" class="graph" transform="scale(0.59 0.59) rotate(0) translate(4 416)">
<g id="clust1" class="cluster">
<title>cluster_1</title>
<polygon fill="transparent" stroke="black" points="80,-8 80,-283.5 401,-283.5 401,-8 80,-8"/>
</g>
<!-- r -->
<g id="node1" class="node">
<title>r</title>
</g>
<!-- rl -->
<g id="node2" class="node">
<title>rl</title>
</g>
<!-- r&#45;&#45;rl -->
<!-- 0 -->
<g id="node5" class="node">
<title>0</title>
<text text-anchor="middle" x="220" y="-264.3" font-family="Times,serif" font-size="14.00">\(s\)</text>
</g>
<!-- r&#45;&#45;0 -->
<!-- r2 -->
<g id="node3" class="node">
<title>r2</title>
</g>
<!-- r2r -->
<g id="node4" class="node">
<title>r2r</title>
</g>
<!-- r2&#45;&#45;r2r -->
<!-- r2&#45;&#45;0 -->
<g id="edge4" class="edge">
<title>r2&#45;&#45;0</title>
<path fill="none" stroke="black" stroke-dasharray="5,2" d="M278.27,-340C259.27,-316.84 235.99,-288.48 225.54,-275.75"/>
</g>
<!-- 3 -->
<g id="node6" class="node">
<title>3</title>
</g>
<!-- 0&#45;&#45;3 -->
<g id="edge6" class="edge">
<title>0&#45;&#45;3</title>
<path fill="none" stroke="lightgreen" d="M217.81,-260.37C213.64,-247.72 204.27,-219.35 196.61,-196.15"/>
</g>
<!-- 1 -->
<g id="node7" class="node">
<title>1</title>
<text text-anchor="middle" x="256" y="-156.3" font-family="Times,serif" font-size="14.00">\(\n\)</text>
</g>
<!-- 0&#45;&#45;1 -->
<g id="edge5" class="edge">
<title>0&#45;&#45;1</title>
<path fill="none" stroke="black" d="M222.25,-260.37C228.72,-241.33 247.28,-186.66 253.75,-167.63"/>
</g>
<!-- g2 -->
<g id="node8" class="node">
<title>g2</title>
<polygon fill="none" stroke="black" points="156,-88 88.42,-34 223.58,-34 156,-88"/>
<text text-anchor="middle" x="156" y="-48.3" font-family="Times,serif" font-size="14.00">\(H_1\)</text>
</g>
<!-- 1&#45;&#45;g2 -->
<g id="edge7" class="edge">
<title>1&#45;&#45;g2:n</title>
<path fill="none" stroke="black" stroke-dasharray="5,2" d="M246.77,-152.45C222.02,-134.87 156,-88 156,-88"/>
</g>
<!-- 2 -->
<g id="node9" class="node">
<title>2</title>
<text text-anchor="middle" x="317" y="-48.3" font-family="Times,serif" font-size="14.00">\(\mhll{\pointed{}}\)</text>
</g>
<!-- 1&#45;&#45;2 -->
<g id="edge8" class="edge">
<title>1&#45;&#45;2</title>
<path fill="none" stroke="lightgreen" d="M259.82,-152.37C270.77,-133.33 302.23,-78.66 313.19,-59.63"/>
</g>
</g>
</svg>
