<?xml version="1.0" encoding="UTF-8" standalone="no"?>
<!DOCTYPE svg PUBLIC "-//W3C//DTD SVG 1.1//EN"
 "http://www.w3.org/Graphics/SVG/1.1/DTD/svg11.dtd">
<!-- Generated by graphviz version 2.47.1 (20210417.1919)
 -->
<!-- Pages: 1 -->
<svg width="288pt" height="151pt"
 viewBox="0.00 0.00 288.00 150.64" xmlns="http://www.w3.org/2000/svg" xmlns:xlink="http://www.w3.org/1999/xlink">
<g id="graph0" class="graph" transform="scale(0.41 0.41) rotate(0) translate(4 359)">
<g id="clust1" class="cluster">
<title>cluster_1</title>
<polygon fill="transparent" stroke="black" points="80,-8 80,-226.5 606,-226.5 606,-8 80,-8"/>
</g>
<!-- r -->
<g id="node1" class="node">
<title>r</title>
</g>
<!-- rl -->
<g id="node2" class="node">
<title>rl</title>
</g>
<!-- r&#45;&#45;rl -->
<!-- 0 -->
<g id="node5" class="node">
<title>0</title>
<text text-anchor="middle" x="306" y="-207.3" font-family="Times,serif" font-size="14.00">\(a\)</text>
</g>
<!-- r&#45;&#45;0 -->
<!-- r2 -->
<g id="node3" class="node">
<title>r2</title>
</g>
<!-- r2r -->
<g id="node4" class="node">
<title>r2r</title>
</g>
<!-- r2&#45;&#45;r2r -->
<!-- r2&#45;&#45;0 -->
<g id="edge4" class="edge">
<title>r2&#45;&#45;0</title>
<path fill="none" stroke="black" stroke-dasharray="5,2" d="M354.22,-283C338.5,-259.84 319.23,-231.48 310.59,-218.75"/>
</g>
<!-- 1 -->
<g id="node6" class="node">
<title>1</title>
<text text-anchor="middle" x="235" y="-127.8" font-family="Times,serif" font-size="14.00">\(o\)</text>
</g>
<!-- 0&#45;&#45;1 -->
<g id="edge5" class="edge">
<title>0&#45;&#45;1</title>
<path fill="none" stroke="black" d="M299.95,-203.39C286.53,-188.75 254.44,-153.72 241.04,-139.09"/>
</g>
<!-- 2 -->
<g id="node7" class="node">
<title>2</title>
<text text-anchor="middle" x="377" y="-127.8" font-family="Times,serif" font-size="14.00">\(\mhll{\n}\)</text>
</g>
<!-- 0&#45;&#45;2 -->
<g id="edge6" class="edge">
<title>0&#45;&#45;2</title>
<path fill="none" stroke="black" d="M312.05,-203.39C325.47,-188.75 357.56,-153.72 370.96,-139.09"/>
</g>
<!-- f1 -->
<g id="node10" class="node">
<title>f1</title>
</g>
<!-- 1&#45;&#45;f1 -->
<g id="edge8" class="edge">
<title>1&#45;&#45;f1</title>
<path fill="none" stroke="lightgreen" d="M225.54,-123.89C211.17,-113.86 183.1,-94.26 160.11,-78.21"/>
</g>
<!-- f0 -->
<g id="node11" class="node">
<title>f0</title>
<text text-anchor="middle" x="235" y="-48.3" font-family="Times,serif" font-size="14.00">\(\pointed{}\)</text>
</g>
<!-- 1&#45;&#45;f0 -->
<g id="edge7" class="edge">
<title>1&#45;&#45;f0</title>
<path fill="none" stroke="lightgreen" d="M235,-123.89C235,-115.84 235,-101.62 235,-88.02"/>
</g>
<!-- g0 -->
<g id="node8" class="node">
<title>g0</title>
<polygon fill="none" stroke="black" points="377,-88 309.42,-34 444.58,-34 377,-88"/>
<text text-anchor="middle" x="377" y="-48.3" font-family="Times,serif" font-size="14.00">\(H_1\)</text>
</g>
<!-- 2&#45;&#45;g0 -->
<g id="edge9" class="edge">
<title>2&#45;&#45;g0:n</title>
<path fill="none" stroke="black" stroke-dasharray="5,2" d="M377,-123.86C377,-111.91 377,-88 377,-88"/>
</g>
<!-- g1 -->
<g id="node9" class="node">
<title>g1</title>
<polygon fill="none" stroke="black" points="530,-88 462.42,-34 597.58,-34 530,-88"/>
<text text-anchor="middle" x="530" y="-48.3" font-family="Times,serif" font-size="14.00">\(H_2\)</text>
</g>
<!-- 2&#45;&#45;g1 -->
<g id="edge10" class="edge">
<title>2&#45;&#45;g1:n</title>
<path fill="none" stroke="black" stroke-dasharray="5,2" d="M400.57,-123.95C443.49,-112.03 530,-88 530,-88"/>
</g>
</g>
</svg>
