<?xml version="1.0" encoding="UTF-8" standalone="no"?>
<!DOCTYPE svg PUBLIC "-//W3C//DTD SVG 1.1//EN"
 "http://www.w3.org/Graphics/SVG/1.1/DTD/svg11.dtd">
<!-- Generated by graphviz version 2.47.1 (20210417.1919)
 -->
<!-- Pages: 1 -->
<svg width="288pt" height="151pt"
 viewBox="0.00 0.00 288.00 150.64" xmlns="http://www.w3.org/2000/svg" xmlns:xlink="http://www.w3.org/1999/xlink">
<g id="graph0" class="graph" transform="scale(0.41 0.41) rotate(0) translate(4 359)">
<g id="clust1" class="cluster">
<title>cluster_1</title>
<path fill="#ffffff" fill-opacity="0.003922" stroke="black" d="M92,-8C92,-8 594,-8 594,-8 600,-8 606,-14 606,-20 606,-20 606,-214.5 606,-214.5 606,-220.5 600,-226.5 594,-226.5 594,-226.5 92,-226.5 92,-226.5 86,-226.5 80,-220.5 80,-214.5 80,-214.5 80,-20 80,-20 80,-14 86,-8 92,-8"/>
</g>
<!-- r -->
<g id="node1" class="node">
<title>r</title>
</g>
<!-- rl -->
<g id="node2" class="node">
<title>rl</title>
</g>
<!-- r&#45;&#45;rl -->
<!-- 0 -->
<g id="node5" class="node">
<title>0</title>
<text text-anchor="middle" x="380" y="-207.3" font-family="Times,serif" font-size="14.00">\(a\)</text>
</g>
<!-- r&#45;&#45;0 -->
<!-- r2 -->
<g id="node3" class="node">
<title>r2</title>
</g>
<!-- r2r -->
<g id="node4" class="node">
<title>r2r</title>
</g>
<!-- r2&#45;&#45;r2r -->
<!-- r2&#45;&#45;0 -->
<g id="edge4" class="edge">
<title>r2&#45;&#45;0</title>
<path fill="none" stroke="black" stroke-dasharray="5,2" d="M440.28,-283C420.62,-259.84 396.54,-231.48 385.73,-218.75"/>
</g>
<!-- 2 -->
<g id="node6" class="node">
<title>2</title>
<text text-anchor="middle" x="309" y="-127.8" font-family="Times,serif" font-size="14.00">\(\mhll{\n}\)</text>
</g>
<!-- 0&#45;&#45;2 -->
<g id="edge6" class="edge">
<title>0&#45;&#45;2</title>
<path fill="none" stroke="black" d="M373.95,-203.39C360.53,-188.75 328.44,-153.72 315.04,-139.09"/>
</g>
<!-- 1 -->
<g id="node7" class="node">
<title>1</title>
<text text-anchor="middle" x="451" y="-127.8" font-family="Times,serif" font-size="14.00">\(o\)</text>
</g>
<!-- 0&#45;&#45;1 -->
<g id="edge5" class="edge">
<title>0&#45;&#45;1</title>
<path fill="none" stroke="black" d="M386.05,-203.39C399.47,-188.75 431.56,-153.72 444.96,-139.09"/>
</g>
<!-- g0 -->
<g id="node8" class="node">
<title>g0</title>
<polygon fill="none" stroke="black" points="156,-88 88.42,-34 223.58,-34 156,-88"/>
<text text-anchor="middle" x="156" y="-48.3" font-family="Times,serif" font-size="14.00">\(H_1\)</text>
</g>
<!-- 2&#45;&#45;g0 -->
<g id="edge9" class="edge">
<title>2&#45;&#45;g0:n</title>
<path fill="none" stroke="black" stroke-dasharray="5,2" d="M285.43,-123.95C242.51,-112.03 156,-88 156,-88"/>
</g>
<!-- g1 -->
<g id="node9" class="node">
<title>g1</title>
<polygon fill="none" stroke="black" points="309,-88 241.42,-34 376.58,-34 309,-88"/>
<text text-anchor="middle" x="309" y="-48.3" font-family="Times,serif" font-size="14.00">\(H_2\)</text>
</g>
<!-- 2&#45;&#45;g1 -->
<g id="edge10" class="edge">
<title>2&#45;&#45;g1:n</title>
<path fill="none" stroke="black" stroke-dasharray="5,2" d="M309,-123.86C309,-111.91 309,-88 309,-88"/>
</g>
<!-- f0 -->
<g id="node10" class="node">
<title>f0</title>
<text text-anchor="middle" x="451" y="-48.3" font-family="Times,serif" font-size="14.00">\(\pointed{}\)</text>
</g>
<!-- 1&#45;&#45;f0 -->
<g id="edge7" class="edge">
<title>1&#45;&#45;f0</title>
<path fill="none" stroke="lightgreen" d="M451,-123.89C451,-115.84 451,-101.62 451,-88.02"/>
</g>
<!-- f1 -->
<g id="node11" class="node">
<title>f1</title>
</g>
<!-- 1&#45;&#45;f1 -->
<g id="edge8" class="edge">
<title>1&#45;&#45;f1</title>
<path fill="none" stroke="lightgreen" d="M460.46,-123.89C474.83,-113.86 502.9,-94.26 525.89,-78.21"/>
</g>
</g>
</svg>
