<?xml version="1.0" encoding="UTF-8" standalone="no"?>
<!DOCTYPE svg PUBLIC "-//W3C//DTD SVG 1.1//EN"
 "http://www.w3.org/Graphics/SVG/1.1/DTD/svg11.dtd">
<!-- Generated by graphviz version 2.47.1 (20210417.1919)
 -->
<!-- Pages: 1 -->
<svg width="288pt" height="254pt"
 viewBox="0.00 0.00 288.00 253.75" xmlns="http://www.w3.org/2000/svg" xmlns:xlink="http://www.w3.org/1999/xlink">
<g id="graph0" class="graph" transform="scale(0.7 0.7) rotate(0) translate(4 359)">
<g id="clust1" class="cluster">
<title>cluster_1</title>
<path fill="#ffffff" fill-opacity="0.003922" stroke="black" d="M92,-8C92,-8 312,-8 312,-8 318,-8 324,-14 324,-20 324,-20 324,-214.5 324,-214.5 324,-220.5 318,-226.5 312,-226.5 312,-226.5 92,-226.5 92,-226.5 86,-226.5 80,-220.5 80,-214.5 80,-214.5 80,-20 80,-20 80,-14 86,-8 92,-8"/>
</g>
<!-- r -->
<g id="node1" class="node">
<title>r</title>
</g>
<!-- rl -->
<g id="node2" class="node">
<title>rl</title>
</g>
<!-- r&#45;&#45;rl -->
<!-- 0 -->
<g id="node5" class="node">
<title>0</title>
<text text-anchor="middle" x="207" y="-207.3" font-family="Times,serif" font-size="14.00">\(s\)</text>
</g>
<!-- r&#45;&#45;0 -->
<!-- r2 -->
<g id="node3" class="node">
<title>r2</title>
</g>
<!-- r2r -->
<g id="node4" class="node">
<title>r2r</title>
</g>
<!-- r2&#45;&#45;r2r -->
<!-- r2&#45;&#45;0 -->
<g id="edge4" class="edge">
<title>r2&#45;&#45;0</title>
<path fill="none" stroke="black" stroke-dasharray="5,2" d="M238.48,-283C228.21,-259.84 215.64,-231.48 209.99,-218.75"/>
</g>
<!-- 1 -->
<g id="node6" class="node">
<title>1</title>
<text text-anchor="middle" x="165" y="-127.8" font-family="Times,serif" font-size="14.00">\(\pointed{}\)</text>
</g>
<!-- 0&#45;&#45;1 -->
<g id="edge5" class="edge">
<title>0&#45;&#45;1</title>
<path fill="none" stroke="lightgreen" d="M203.42,-203.39C195.48,-188.75 176.5,-153.72 168.57,-139.09"/>
</g>
<!-- 2 -->
<g id="node7" class="node">
<title>2</title>
<text text-anchor="middle" x="249" y="-127.8" font-family="Times,serif" font-size="14.00">\(\n\)</text>
</g>
<!-- 0&#45;&#45;2 -->
<g id="edge6" class="edge">
<title>0&#45;&#45;2</title>
<path fill="none" stroke="black" d="M210.58,-203.39C218.52,-188.75 237.5,-153.72 245.43,-139.09"/>
</g>
<!-- g2 -->
<g id="node8" class="node">
<title>g2</title>
<polygon fill="none" stroke="black" points="156,-88 88.42,-34 223.58,-34 156,-88"/>
<text text-anchor="middle" x="156" y="-48.3" font-family="Times,serif" font-size="14.00">\(H_1\)</text>
</g>
<!-- 2&#45;&#45;g2 -->
<g id="edge7" class="edge">
<title>2&#45;&#45;g2:n</title>
<path fill="none" stroke="black" stroke-dasharray="5,2" d="M234.47,-123.86C208.31,-111.91 156,-88 156,-88"/>
</g>
<!-- 3 -->
<g id="node9" class="node">
<title>3</title>
<text text-anchor="middle" x="279" y="-48.3" font-family="Times,serif" font-size="14.00">\(\mhll{}\)</text>
</g>
<!-- 2&#45;&#45;3 -->
<g id="edge8" class="edge">
<title>2&#45;&#45;3</title>
<path fill="none" stroke="lightgreen" d="M251.56,-123.89C257.23,-109.25 270.79,-74.22 276.45,-59.59"/>
</g>
</g>
</svg>
