<?xml version="1.0" encoding="UTF-8" standalone="no"?>
<!DOCTYPE svg PUBLIC "-//W3C//DTD SVG 1.1//EN"
 "http://www.w3.org/Graphics/SVG/1.1/DTD/svg11.dtd">
<!-- Generated by graphviz version 2.47.1 (20210417.1919)
 -->
<!-- Pages: 1 -->
<svg width="82pt" height="176pt"
 viewBox="0.00 0.00 82.00 176.00" xmlns="http://www.w3.org/2000/svg" xmlns:xlink="http://www.w3.org/1999/xlink">
<g id="graph0" class="graph" transform="scale(1 1) rotate(0) translate(4 172)">
<polygon fill="white" stroke="transparent" points="-4,4 -4,-172 78,-172 78,4 -4,4"/>
<!-- 0 -->
<g id="node1" class="node">
<title>0</title>
<text text-anchor="middle" x="36" y="-156.8" font-family="Times,serif" font-size="14.00">\(l\)</text>
</g>
<!-- 1 -->
<g id="node2" class="node">
<title>1</title>
<text text-anchor="middle" x="36" y="-105.8" font-family="Times,serif" font-size="14.00">\(a\)</text>
</g>
<!-- 0&#45;&#45;1 -->
<g id="edge1" class="edge">
<title>0&#45;&#45;1</title>
<path fill="none" stroke="black" d="M36,-152.69C36,-143.33 36,-126.59 36,-117.26"/>
</g>
<!-- 2 -->
<g id="node3" class="node">
<title>2</title>
<text text-anchor="middle" x="14" y="-54.8" font-family="Times,serif" font-size="14.00">\(l\)</text>
</g>
<!-- 1&#45;&#45;2 -->
<g id="edge2" class="edge">
<title>1&#45;&#45;2</title>
<path fill="none" stroke="black" d="M32.94,-101.69C28.74,-92.33 21.22,-75.59 17.03,-66.26"/>
</g>
<!-- 4 -->
<g id="node5" class="node">
<title>4</title>
<text text-anchor="middle" x="59" y="-54.8" font-family="Times,serif" font-size="14.00">\(s\)</text>
</g>
<!-- 1&#45;&#45;4 -->
<g id="edge4" class="edge">
<title>1&#45;&#45;4</title>
<path fill="none" stroke="black" d="M39.2,-101.69C43.59,-92.33 51.45,-75.59 55.83,-66.26"/>
</g>
<!-- 3 -->
<g id="node4" class="node">
<title>3</title>
<text text-anchor="middle" x="14" y="-3.8" font-family="Times,serif" font-size="14.00">\(o\)</text>
</g>
<!-- 2&#45;&#45;3 -->
<g id="edge3" class="edge">
<title>2&#45;&#45;3</title>
<path fill="none" stroke="black" d="M14,-50.69C14,-41.33 14,-24.59 14,-15.26"/>
</g>
<!-- 5 -->
<g id="node6" class="node">
<title>5</title>
<text text-anchor="middle" x="60" y="-3.8" font-family="Times,serif" font-size="14.00">\(o\)</text>
</g>
<!-- 4&#45;&#45;5 -->
<g id="edge5" class="edge">
<title>4&#45;&#45;5</title>
<path fill="none" stroke="black" d="M59.14,-50.69C59.33,-41.33 59.67,-24.59 59.86,-15.26"/>
</g>
</g>
</svg>
