<?xml version="1.0" encoding="UTF-8" standalone="no"?>
<!DOCTYPE svg PUBLIC "-//W3C//DTD SVG 1.1//EN"
 "http://www.w3.org/Graphics/SVG/1.1/DTD/svg11.dtd">
<!-- Generated by graphviz version 2.47.1 (20210417.1919)
 -->
<!-- Pages: 1 -->
<svg width="44pt" height="176pt"
 viewBox="0.00 0.00 44.00 176.00" xmlns="http://www.w3.org/2000/svg" xmlns:xlink="http://www.w3.org/1999/xlink">
<g id="graph0" class="graph" transform="scale(1 1) rotate(0) translate(4 172)">
<polygon fill="white" stroke="transparent" points="-4,4 -4,-172 40,-172 40,4 -4,4"/>
<!-- 0 -->
<g id="node1" class="node">
<title>0</title>
<text text-anchor="middle" x="17.5" y="-156.8" font-family="Times,serif" font-size="14.00">a</text>
</g>
<!-- 1 -->
<g id="node2" class="node">
<title>1</title>
<text text-anchor="middle" x="6.5" y="-105.8" font-family="Times,serif" font-size="14.00">l</text>
</g>
<!-- 0&#45;&#45;1 -->
<g id="edge1" class="edge">
<title>0&#45;&#45;1</title>
<path fill="none" stroke="black" d="M15.97,-152.69C13.87,-143.33 10.11,-126.59 8.02,-117.26"/>
</g>
<!-- 4 -->
<g id="node5" class="node">
<title>4</title>
<text text-anchor="middle" x="30.5" y="-105.8" font-family="Times,serif" font-size="14.00">l</text>
</g>
<!-- 0&#45;&#45;4 -->
<g id="edge4" class="edge">
<title>0&#45;&#45;4</title>
<path fill="none" stroke="black" d="M19.31,-152.69C21.79,-143.33 26.23,-126.59 28.71,-117.26"/>
</g>
<!-- 2 -->
<g id="node3" class="node">
<title>2</title>
<text text-anchor="middle" x="4.5" y="-54.8" font-family="Times,serif" font-size="14.00">s</text>
</g>
<!-- 1&#45;&#45;2 -->
<g id="edge2" class="edge">
<title>1&#45;&#45;2</title>
<path fill="none" stroke="black" d="M6.22,-101.69C5.84,-92.33 5.16,-75.59 4.78,-66.26"/>
</g>
<!-- 3 -->
<g id="node4" class="node">
<title>3</title>
<text text-anchor="middle" x="4.5" y="-3.8" font-family="Times,serif" font-size="14.00">o</text>
</g>
<!-- 2&#45;&#45;3 -->
<g id="edge3" class="edge">
<title>2&#45;&#45;3</title>
<path fill="none" stroke="black" d="M4.5,-50.69C4.5,-41.33 4.5,-24.59 4.5,-15.26"/>
</g>
<!-- 5 -->
<g id="node6" class="node">
<title>5</title>
<text text-anchor="middle" x="31.5" y="-54.8" font-family="Times,serif" font-size="14.00">o</text>
</g>
<!-- 4&#45;&#45;5 -->
<g id="edge5" class="edge">
<title>4&#45;&#45;5</title>
<path fill="none" stroke="black" d="M30.64,-101.69C30.83,-92.33 31.17,-75.59 31.36,-66.26"/>
</g>
</g>
</svg>
