<?xml version="1.0" encoding="UTF-8" standalone="no"?>
<!DOCTYPE svg PUBLIC "-//W3C//DTD SVG 1.1//EN"
 "http://www.w3.org/Graphics/SVG/1.1/DTD/svg11.dtd">
<!-- Generated by graphviz version 2.47.1 (20210417.1919)
 -->
<!-- Pages: 1 -->
<svg width="288pt" height="125pt"
 viewBox="0.00 0.00 288.00 124.59" xmlns="http://www.w3.org/2000/svg" xmlns:xlink="http://www.w3.org/1999/xlink">
<g id="graph0" class="graph" transform="scale(0.85 0.85) rotate(0) translate(4 142)">
<polygon fill="white" stroke="transparent" points="-4,4 -4,-142 333.5,-142 333.5,4 -4,4"/>
<!-- 0 -->
<g id="node1" class="node">
<title>0</title>
<text text-anchor="middle" x="193.5" y="-126.8" font-family="Times,serif" font-size="14.00">\(a\)</text>
</g>
<!-- 1 -->
<g id="node2" class="node">
<title>1</title>
<text text-anchor="middle" x="157.5" y="-75.8" font-family="Times,serif" font-size="14.00">\(o\)</text>
</g>
<!-- 0&#45;&#45;1 -->
<g id="edge1" class="edge">
<title>0&#45;&#45;1</title>
<path fill="none" stroke="black" d="M188.49,-122.69C181.62,-113.33 169.32,-96.59 162.46,-87.26"/>
</g>
<!-- 4 -->
<g id="node5" class="node">
<title>4</title>
<text text-anchor="middle" x="230.5" y="-75.8" font-family="Times,serif" font-size="14.00">\(\mhll{o}\)</text>
</g>
<!-- 0&#45;&#45;4 -->
<g id="edge4" class="edge">
<title>0&#45;&#45;4</title>
<path fill="none" stroke="black" d="M198.64,-122.69C205.71,-113.33 218.35,-96.59 225.4,-87.26"/>
</g>
<!-- 2 -->
<g id="node3" class="node">
<title>2</title>
<text text-anchor="middle" x="56.5" y="-14.3" font-family="Times,serif" font-size="14.00">\(\pointed{}\)</text>
</g>
<!-- 1&#45;&#45;2 -->
<g id="edge2" class="edge">
<title>1&#45;&#45;2</title>
<path fill="none" stroke="lightgreen" d="M146.31,-71.91C131.72,-63.31 105.68,-47.97 85.39,-36.02"/>
</g>
<!-- 3 -->
<g id="node4" class="node">
<title>3</title>
</g>
<!-- 1&#45;&#45;3 -->
<g id="edge3" class="edge">
<title>1&#45;&#45;3</title>
<path fill="none" stroke="lightgreen" d="M157.61,-71.67C157.76,-63.07 158.01,-47.96 158.21,-36.13"/>
</g>
<!-- 5 -->
<g id="node6" class="node">
<title>5</title>
</g>
<!-- 4&#45;&#45;5 -->
<g id="edge5" class="edge">
<title>4&#45;&#45;5</title>
<path fill="none" stroke="lightgreen" d="M230.5,-71.67C230.5,-63.07 230.5,-47.96 230.5,-36.13"/>
</g>
<!-- 6 -->
<g id="node7" class="node">
<title>6</title>
</g>
<!-- 4&#45;&#45;6 -->
<g id="edge6" class="edge">
<title>4&#45;&#45;6</title>
<path fill="none" stroke="lightgreen" d="M238.48,-71.91C248.88,-63.31 267.44,-47.97 281.91,-36.02"/>
</g>
</g>
</svg>
