<?xml version="1.0" encoding="UTF-8" standalone="no"?>
<!DOCTYPE svg PUBLIC "-//W3C//DTD SVG 1.1//EN"
 "http://www.w3.org/Graphics/SVG/1.1/DTD/svg11.dtd">
<!-- Generated by graphviz version 2.47.1 (20210417.1919)
 -->
<!-- Pages: 1 -->
<svg width="242pt" height="288pt"
 viewBox="0.00 0.00 242.21 288.00" xmlns="http://www.w3.org/2000/svg" xmlns:xlink="http://www.w3.org/1999/xlink">
<g id="graph0" class="graph" transform="scale(0.71 0.71) rotate(0) translate(4 400)">
<!-- r -->
<g id="node1" class="node">
<title>r</title>
</g>
<!-- 1 -->
<g id="node3" class="node">
<title>1</title>
<text text-anchor="middle" x="180.77" y="-302.3" font-family="Times,serif" font-size="14.00">\(\n\)</text>
</g>
<!-- r&#45;&#45;1 -->
<g id="edge1" class="edge">
<title>r&#45;&#45;1</title>
<path fill="none" stroke="black" stroke-dasharray="5,2" d="M207.87,-359.7C202.29,-348.85 195.13,-334.92 189.57,-324.1"/>
</g>
<!-- rr -->
<g id="node5" class="node">
<title>rr</title>
</g>
<!-- r&#45;&#45;rr -->
<!-- v -->
<g id="node2" class="node">
<title>v</title>
<polygon fill="none" stroke="black" points="93.77,-252 0.23,-117 187.31,-117 93.77,-252"/>
<text text-anchor="middle" x="93.77" y="-158.3" font-family="Times,serif" font-size="14.00">\(\tSub(v)\)</text>
</g>
<!-- 1&#45;&#45;v -->
<g id="edge6" class="edge">
<title>1&#45;&#45;v:n</title>
<path fill="none" stroke="black" d="M153.72,-288.52C128.18,-272.96 93.77,-252 93.77,-252"/>
</g>
<!-- 2 -->
<g id="node4" class="node">
<title>2</title>
<text text-anchor="middle" x="268.77" y="-158.3" font-family="Times,serif" font-size="14.00">\(\pointed{\n}\)</text>
</g>
<!-- 1&#45;&#45;2 -->
<g id="edge3" class="edge">
<title>1&#45;&#45;2</title>
<path fill="none" stroke="black" d="M191.38,-287.87C208.3,-260.58 241.18,-207.52 258.12,-180.19"/>
</g>
<!-- 00 -->
<g id="node6" class="node">
<title>00</title>
</g>
<!-- 2&#45;&#45;00 -->
<g id="edge4" class="edge">
<title>2&#45;&#45;00</title>
<path fill="none" stroke="lightgreen" d="M264.43,-143.87C257.51,-116.58 244.06,-63.52 237.13,-36.19"/>
</g>
<!-- 01 -->
<g id="node7" class="node">
<title>01</title>
</g>
<!-- 2&#45;&#45;01 -->
<g id="edge5" class="edge">
<title>2&#45;&#45;01</title>
<path fill="none" stroke="lightgreen" d="M273.11,-143.87C280.03,-116.58 293.48,-63.52 300.41,-36.19"/>
</g>
</g>
</svg>
