<?xml version="1.0" encoding="UTF-8" standalone="no"?>
<!DOCTYPE svg PUBLIC "-//W3C//DTD SVG 1.1//EN"
 "http://www.w3.org/Graphics/SVG/1.1/DTD/svg11.dtd">
<!-- Generated by graphviz version 2.47.1 (20210417.1919)
 -->
<!-- Pages: 1 -->
<svg width="190pt" height="238pt"
 viewBox="0.00 0.00 190.00 238.00" xmlns="http://www.w3.org/2000/svg" xmlns:xlink="http://www.w3.org/1999/xlink">
<g id="graph0" class="graph" transform="scale(1 1) rotate(0) translate(4 234)">
<!-- 00 -->
<g id="node1" class="node">
<title>00</title>
<ellipse fill="black" stroke="black" cx="109.5" cy="-183.5" rx="3.5" ry="3.5"/>
</g>
<!-- 01 -->
<g id="node2" class="node">
<title>01</title>
<ellipse fill="black" stroke="black" cx="72.5" cy="-140.5" rx="3.5" ry="3.5"/>
</g>
<!-- 00&#45;&#45;01 -->
<g id="edge5" class="edge">
<title>00&#45;&#45;01</title>
<path fill="none" stroke="black" d="M107.51,-180.3C101.03,-173.11 80.56,-150.43 74.32,-143.52"/>
</g>
<!-- 05 -->
<g id="node6" class="node">
<title>05</title>
<ellipse fill="black" stroke="black" cx="109.5" cy="-140.5" rx="3.5" ry="3.5"/>
</g>
<!-- 00&#45;&#45;05 -->
<g id="edge16" class="edge">
<title>00&#45;&#45;05</title>
<path fill="none" stroke="black" d="M109.5,-179.81C109.5,-172.4 109.5,-151.74 109.5,-144.25"/>
</g>
<!-- 02 -->
<g id="node3" class="node">
<title>02</title>
<ellipse fill="black" stroke="black" cx="28.5" cy="-93.5" rx="3.5" ry="3.5"/>
</g>
<!-- 01&#45;&#45;02 -->
<g id="edge6" class="edge">
<title>01&#45;&#45;02</title>
<path fill="none" stroke="black" d="M70.38,-137.33C62.96,-129.75 38.25,-104.47 30.7,-96.75"/>
</g>
<!-- v -->
<g id="node23" class="node">
<title>v</title>
<text text-anchor="middle" x="72.5" y="-89.8" font-family="Times,serif" font-size="14.00">\(v\)</text>
</g>
<!-- 01&#45;&#45;v -->
<g id="edge9" class="edge">
<title>01&#45;&#45;v</title>
<path fill="none" stroke="black" d="M72.5,-136.82C72.5,-129.86 72.5,-111.04 72.5,-101.01"/>
</g>
<!-- 10 -->
<!-- 02&#45;&#45;10 -->
<g id="edge7" class="edge">
<title>02&#45;&#45;10</title>
<path fill="none" stroke="lightgreen" d="M27.16,-90.08C22.86,-82.34 9.45,-58.22 4.98,-50.16"/>
</g>
<!-- 11 -->
<!-- 02&#45;&#45;11 -->
<g id="edge8" class="edge">
<title>02&#45;&#45;11</title>
<path fill="none" stroke="lightgreen" d="M28.5,-89.82C28.5,-81.8 28.5,-58.04 28.5,-50.11"/>
</g>
<!-- 03 -->
<g id="node4" class="node">
<title>03</title>
<ellipse fill="black" stroke="black" cx="53.5" cy="-46.5" rx="3.5" ry="3.5"/>
</g>
<!-- 12 -->
<!-- 03&#45;&#45;12 -->
<g id="edge12" class="edge">
<title>03&#45;&#45;12</title>
<path fill="none" stroke="lightgreen" d="M51.86,-42.81C47.25,-35.26 34.26,-13.94 29.92,-6.84"/>
</g>
<!-- 13 -->
<!-- 03&#45;&#45;13 -->
<g id="edge13" class="edge">
<title>03&#45;&#45;13</title>
<path fill="none" stroke="lightgreen" d="M53.5,-42.81C53.5,-35.4 53.5,-14.74 53.5,-7.25"/>
</g>
<!-- 04 -->
<g id="node5" class="node">
<title>04</title>
<ellipse fill="black" stroke="black" cx="78.5" cy="-46.5" rx="3.5" ry="3.5"/>
</g>
<!-- 14 -->
<!-- 04&#45;&#45;14 -->
<g id="edge14" class="edge">
<title>04&#45;&#45;14</title>
<path fill="none" stroke="lightgreen" d="M78.5,-42.81C78.5,-35.4 78.5,-14.74 78.5,-7.25"/>
</g>
<!-- 15 -->
<!-- 04&#45;&#45;15 -->
<g id="edge15" class="edge">
<title>04&#45;&#45;15</title>
<path fill="none" stroke="lightgreen" d="M80.14,-42.81C84.75,-35.26 97.74,-13.94 102.08,-6.84"/>
</g>
<!-- 06 -->
<g id="node7" class="node">
<title>06</title>
<ellipse fill="black" stroke="black" cx="109.5" cy="-93.5" rx="3.5" ry="3.5"/>
</g>
<!-- 05&#45;&#45;06 -->
<g id="edge17" class="edge">
<title>05&#45;&#45;06</title>
<path fill="none" stroke="black" d="M109.5,-136.82C109.5,-128.8 109.5,-105.04 109.5,-97.11"/>
</g>
<!-- 07 -->
<g id="node8" class="node">
<title>07</title>
<ellipse fill="black" stroke="black" cx="153.5" cy="-93.5" rx="3.5" ry="3.5"/>
</g>
<!-- 05&#45;&#45;07 -->
<g id="edge18" class="edge">
<title>05&#45;&#45;07</title>
<path fill="none" stroke="black" d="M111.62,-137.33C119.04,-129.75 143.75,-104.47 151.3,-96.75"/>
</g>
<!-- 16 -->
<!-- 06&#45;&#45;16 -->
<g id="edge19" class="edge">
<title>06&#45;&#45;16</title>
<path fill="none" stroke="lightgreen" d="M109.14,-89.82C108.07,-81.8 104.91,-58.04 103.85,-50.11"/>
</g>
<!-- 17 -->
<!-- 06&#45;&#45;17 -->
<g id="edge20" class="edge">
<title>06&#45;&#45;17</title>
<path fill="none" stroke="lightgreen" d="M110.52,-90.08C113.79,-82.34 123.97,-58.22 127.38,-50.16"/>
</g>
<!-- 18 -->
<!-- 07&#45;&#45;18 -->
<g id="edge21" class="edge">
<title>07&#45;&#45;18</title>
<path fill="none" stroke="lightgreen" d="M153.5,-89.82C153.5,-81.8 153.5,-58.04 153.5,-50.11"/>
</g>
<!-- 19 -->
<!-- 07&#45;&#45;19 -->
<g id="edge22" class="edge">
<title>07&#45;&#45;19</title>
<path fill="none" stroke="lightgreen" d="M154.84,-90.08C159.14,-82.34 172.55,-58.22 177.02,-50.16"/>
</g>
<!-- 08 -->
<g id="node9" class="node">
<title>08</title>
<ellipse fill="black" stroke="black" cx="121.5" cy="-226.5" rx="3.5" ry="3.5"/>
</g>
<!-- 08&#45;&#45;00 -->
<g id="edge1" class="edge">
<title>08&#45;&#45;00</title>
<path fill="none" stroke="black" d="M120.71,-222.81C118.54,-215.4 112.5,-194.74 110.31,-187.25"/>
</g>
<!-- 09 -->
<g id="node10" class="node">
<title>09</title>
<ellipse fill="black" stroke="black" cx="134.5" cy="-183.5" rx="3.5" ry="3.5"/>
</g>
<!-- 08&#45;&#45;09 -->
<g id="edge2" class="edge">
<title>08&#45;&#45;09</title>
<path fill="none" stroke="black" d="M122.35,-222.81C124.7,-215.4 131.25,-194.74 133.63,-187.25"/>
</g>
<!-- 20 -->
<!-- 09&#45;&#45;20 -->
<g id="edge3" class="edge">
<title>09&#45;&#45;20</title>
<path fill="none" stroke="lightgreen" d="M134.5,-179.81C134.5,-172.4 134.5,-151.74 134.5,-144.25"/>
</g>
<!-- 21 -->
<!-- 09&#45;&#45;21 -->
<g id="edge4" class="edge">
<title>09&#45;&#45;21</title>
<path fill="none" stroke="lightgreen" d="M136.14,-179.81C140.75,-172.26 153.74,-150.94 158.08,-143.84"/>
</g>
<!-- v&#45;&#45;03 -->
<g id="edge10" class="edge">
<title>v&#45;&#45;03</title>
<path fill="none" stroke="black" d="M69.7,-85.86C65.4,-75.69 57.39,-56.72 54.54,-49.97"/>
</g>
<!-- v&#45;&#45;04 -->
<g id="edge11" class="edge">
<title>v&#45;&#45;04</title>
<path fill="none" stroke="black" d="M73.39,-85.86C74.72,-75.89 77.17,-57.45 78.12,-50.37"/>
</g>
</g>
</svg>
