<?xml version="1.0" encoding="UTF-8" standalone="no"?>
<!DOCTYPE svg PUBLIC "-//W3C//DTD SVG 1.1//EN"
 "http://www.w3.org/Graphics/SVG/1.1/DTD/svg11.dtd">
<!-- Generated by graphviz version 2.47.1 (20210417.1919)
 -->
<!-- Pages: 1 -->
<svg width="230pt" height="260pt"
 viewBox="0.00 0.00 229.50 260.00" xmlns="http://www.w3.org/2000/svg" xmlns:xlink="http://www.w3.org/1999/xlink">
<g id="graph0" class="graph" transform="scale(1 1) rotate(0) translate(4 256)">
<!-- r -->
<g id="node1" class="node">
<title>r</title>
</g>
<!-- 1 -->
<g id="node2" class="node">
<title>1</title>
<text text-anchor="middle" x="114" y="-158.3" font-family="Times,serif" font-size="14.00">\(\n\)</text>
</g>
<!-- r&#45;&#45;1 -->
<g id="edge2" class="edge">
<title>r&#45;&#45;1</title>
<path fill="none" stroke="black" stroke-dasharray="5,2" d="M141.1,-215.7C135.52,-204.85 128.36,-190.92 122.8,-180.1"/>
</g>
<!-- rr -->
<g id="node7" class="node">
<title>rr</title>
</g>
<!-- r&#45;&#45;rr -->
<!-- v -->
<g id="node3" class="node">
<title>v</title>
<text text-anchor="middle" x="63" y="-86.3" font-family="Times,serif" font-size="14.00">\(\n\)</text>
</g>
<!-- 1&#45;&#45;v -->
<g id="edge3" class="edge">
<title>1&#45;&#45;v</title>
<path fill="none" stroke="black" d="M101.39,-143.7C93.49,-132.85 83.34,-118.92 75.46,-108.1"/>
</g>
<!-- 2 -->
<g id="node6" class="node">
<title>2</title>
<text text-anchor="middle" x="165" y="-86.3" font-family="Times,serif" font-size="14.00">\(\pointed{}\)</text>
</g>
<!-- 1&#45;&#45;2 -->
<g id="edge4" class="edge">
<title>1&#45;&#45;2</title>
<path fill="none" stroke="lightgreen" d="M126.61,-143.7C134.51,-132.85 144.66,-118.92 152.54,-108.1"/>
</g>
<!-- vl -->
<g id="node4" class="node">
<title>vl</title>
<polygon fill="none" stroke="black" points="27,-36 0,-9 54,-9 27,-36"/>
</g>
<!-- v&#45;&#45;vl -->
<g id="edge5" class="edge">
<title>v&#45;&#45;vl:n</title>
<path fill="none" stroke="black" d="M51.41,-71.94C40.89,-56.45 27,-36 27,-36"/>
</g>
<!-- vr -->
<g id="node5" class="node">
<title>vr</title>
<polygon fill="none" stroke="black" points="99,-36 72,-9 126,-9 99,-36"/>
</g>
<!-- v&#45;&#45;vr -->
<g id="edge6" class="edge">
<title>v&#45;&#45;vr:n</title>
<path fill="none" stroke="black" d="M74.59,-71.94C85.11,-56.45 99,-36 99,-36"/>
</g>
</g>
</svg>
