<?xml version="1.0" encoding="UTF-8" standalone="no"?>
<!DOCTYPE svg PUBLIC "-//W3C//DTD SVG 1.1//EN"
 "http://www.w3.org/Graphics/SVG/1.1/DTD/svg11.dtd">
<!-- Generated by graphviz version 2.47.1 (20210417.1919)
 -->
<!-- Pages: 1 -->
<svg width="288pt" height="222pt"
 viewBox="0.00 0.00 288.00 221.54" xmlns="http://www.w3.org/2000/svg" xmlns:xlink="http://www.w3.org/1999/xlink">
<g id="graph0" class="graph" transform="scale(0.85 0.85) rotate(0) translate(4 256)">
<polygon fill="white" stroke="transparent" points="-4,4 -4,-256 334,-256 334,4 -4,4"/>
<!-- r -->
<g id="node1" class="node">
<title>r</title>
</g>
<!-- 1 -->
<g id="node2" class="node">
<title>1</title>
<text text-anchor="middle" x="180" y="-158.3" font-family="Times,serif" font-size="14.00">\(\n\)</text>
</g>
<!-- r&#45;&#45;1 -->
<g id="edge2" class="edge">
<title>r&#45;&#45;1</title>
<path fill="none" stroke="black" stroke-dasharray="5,2" d="M207.1,-215.7C201.52,-204.85 194.36,-190.92 188.8,-180.1"/>
</g>
<!-- rr -->
<g id="node10" class="node">
<title>rr</title>
</g>
<!-- r&#45;&#45;rr -->
<!-- 2 -->
<g id="node3" class="node">
<title>2</title>
<text text-anchor="middle" x="129" y="-86.3" font-family="Times,serif" font-size="14.00">\(\n\)</text>
</g>
<!-- 1&#45;&#45;2 -->
<g id="edge3" class="edge">
<title>1&#45;&#45;2</title>
<path fill="none" stroke="black" d="M167.39,-143.7C159.49,-132.85 149.34,-118.92 141.46,-108.1"/>
</g>
<!-- v -->
<g id="node7" class="node">
<title>v</title>
<text text-anchor="middle" x="231" y="-86.3" font-family="Times,serif" font-size="14.00">\(\n\)</text>
</g>
<!-- 1&#45;&#45;v -->
<g id="edge6" class="edge">
<title>1&#45;&#45;v</title>
<path fill="none" stroke="black" d="M192.61,-143.7C200.51,-132.85 210.66,-118.92 218.54,-108.1"/>
</g>
<!-- 3 -->
<g id="node4" class="node">
<title>3</title>
</g>
<!-- 2&#45;&#45;3 -->
<g id="edge4" class="edge">
<title>2&#45;&#45;3</title>
<path fill="none" stroke="lightgreen" d="M104.05,-71.88C88.24,-61.03 67.87,-47.05 52.05,-36.19"/>
</g>
<!-- 4 -->
<g id="node5" class="node">
<title>4</title>
<text text-anchor="middle" x="129" y="-14.3" font-family="Times,serif" font-size="14.00">\(\pointed{}\)</text>
</g>
<!-- 2&#45;&#45;4 -->
<g id="edge5" class="edge">
<title>2&#45;&#45;4</title>
<path fill="none" stroke="lightgreen" d="M129,-71.7C129,-60.85 129,-46.92 129,-36.1"/>
</g>
<!-- 5 -->
<g id="node6" class="node">
<title>5</title>
</g>
<!-- vl -->
<g id="node8" class="node">
<title>vl</title>
<polygon fill="none" stroke="black" points="231,-36 204,-9 258,-9 231,-36"/>
</g>
<!-- v&#45;&#45;vl -->
<g id="edge7" class="edge">
<title>v&#45;&#45;vl:n</title>
<path fill="none" stroke="black" d="M231,-71.94C231,-56.45 231,-36 231,-36"/>
</g>
<!-- vr -->
<g id="node9" class="node">
<title>vr</title>
<polygon fill="none" stroke="black" points="303,-36 276,-9 330,-9 303,-36"/>
</g>
<!-- v&#45;&#45;vr -->
<g id="edge8" class="edge">
<title>v&#45;&#45;vr:n</title>
<path fill="none" stroke="black" d="M254.18,-71.94C275.23,-56.45 303,-36 303,-36"/>
</g>
</g>
</svg>
