<?xml version="1.0" encoding="UTF-8" standalone="no"?>
<!DOCTYPE svg PUBLIC "-//W3C//DTD SVG 1.1//EN"
 "http://www.w3.org/Graphics/SVG/1.1/DTD/svg11.dtd">
<!-- Generated by graphviz version 2.47.1 (20210417.1919)
 -->
<!-- Pages: 1 -->
<svg width="288pt" height="282pt"
 viewBox="0.00 0.00 288.00 281.56" xmlns="http://www.w3.org/2000/svg" xmlns:xlink="http://www.w3.org/1999/xlink">
<g id="graph0" class="graph" transform="scale(0.85 0.85) rotate(0) translate(4 328)">
<polygon fill="white" stroke="transparent" points="-4,4 -4,-328 335.6,-328 335.6,4 -4,4"/>
<!-- r -->
<g id="node1" class="node">
<title>r</title>
</g>
<!-- 1 -->
<g id="node2" class="node">
<title>1</title>
<text text-anchor="middle" x="151.6" y="-230.3" font-family="Times,serif" font-size="14.00">\(\n\)</text>
</g>
<!-- r&#45;&#45;1 -->
<g id="edge2" class="edge">
<title>r&#45;&#45;1</title>
<path fill="none" stroke="black" stroke-dasharray="5,2" d="M178.7,-287.7C173.12,-276.85 165.95,-262.92 160.39,-252.1"/>
</g>
<!-- rr -->
<g id="node9" class="node">
<title>rr</title>
</g>
<!-- r&#45;&#45;rr -->
<!-- v -->
<g id="node3" class="node">
<title>v</title>
<text text-anchor="middle" x="100.6" y="-158.3" font-family="Times,serif" font-size="14.00">\(\n\)</text>
</g>
<!-- 1&#45;&#45;v -->
<g id="edge3" class="edge">
<title>1&#45;&#45;v</title>
<path fill="none" stroke="black" d="M138.99,-215.7C131.09,-204.85 120.94,-190.92 113.06,-180.1"/>
</g>
<!-- 2 -->
<g id="node6" class="node">
<title>2</title>
<text text-anchor="middle" x="202.6" y="-158.3" font-family="Times,serif" font-size="14.00">\(\n\)</text>
</g>
<!-- 1&#45;&#45;2 -->
<g id="edge6" class="edge">
<title>1&#45;&#45;2</title>
<path fill="none" stroke="black" d="M164.2,-215.7C172.11,-204.85 182.26,-190.92 190.14,-180.1"/>
</g>
<!-- vl -->
<g id="node4" class="node">
<title>vl</title>
<polygon fill="none" stroke="black" points="28.6,-108 1.6,-81 55.6,-81 28.6,-108"/>
</g>
<!-- v&#45;&#45;vl -->
<g id="edge4" class="edge">
<title>v&#45;&#45;vl:n</title>
<path fill="none" stroke="black" d="M77.42,-143.94C56.37,-128.45 28.6,-108 28.6,-108"/>
</g>
<!-- vr -->
<g id="node5" class="node">
<title>vr</title>
<polygon fill="none" stroke="black" points="100.6,-108 73.6,-81 127.6,-81 100.6,-108"/>
</g>
<!-- v&#45;&#45;vr -->
<g id="edge5" class="edge">
<title>v&#45;&#45;vr:n</title>
<path fill="none" stroke="black" d="M100.6,-143.94C100.6,-128.45 100.6,-108 100.6,-108"/>
</g>
<!-- 000 -->
<!-- vl&#45;&#45;000 -->
<!-- 3 -->
<g id="node7" class="node">
<title>3</title>
<text text-anchor="middle" x="202.6" y="-86.3" font-family="Times,serif" font-size="14.00">\(\pointed{}\)</text>
</g>
<!-- 2&#45;&#45;3 -->
<g id="edge7" class="edge">
<title>2&#45;&#45;3</title>
<path fill="none" stroke="lightgreen" d="M202.6,-143.7C202.6,-132.85 202.6,-118.92 202.6,-108.1"/>
</g>
<!-- 4 -->
<g id="node8" class="node">
<title>4</title>
</g>
<!-- 2&#45;&#45;4 -->
<g id="edge8" class="edge">
<title>2&#45;&#45;4</title>
<path fill="none" stroke="lightgreen" d="M227.55,-143.88C243.36,-133.03 263.72,-119.05 279.55,-108.19"/>
</g>
</g>
</svg>
