<?xml version="1.0" encoding="UTF-8" standalone="no"?>
<!DOCTYPE svg PUBLIC "-//W3C//DTD SVG 1.1//EN"
 "http://www.w3.org/Graphics/SVG/1.1/DTD/svg11.dtd">
<!-- Generated by graphviz version 2.47.1 (20210417.1919)
 -->
<!-- Pages: 1 -->
<svg width="288pt" height="283pt"
 viewBox="0.00 0.00 288.00 283.31" xmlns="http://www.w3.org/2000/svg" xmlns:xlink="http://www.w3.org/1999/xlink">
<g id="graph0" class="graph" transform="scale(0.85 0.85) rotate(0) translate(4 328)">
<!-- r -->
<g id="node1" class="node">
<title>r</title>
</g>
<!-- 1 -->
<g id="node2" class="node">
<title>1</title>
<text text-anchor="middle" x="194.5" y="-230.3" font-family="Times,serif" font-size="14.00">\(\n\)</text>
</g>
<!-- r&#45;&#45;1 -->
<g id="edge2" class="edge">
<title>r&#45;&#45;1</title>
<path fill="none" stroke="black" stroke-dasharray="5,2" d="M221.6,-287.7C216.02,-276.85 208.86,-262.92 203.3,-252.1"/>
</g>
<!-- rr -->
<g id="node9" class="node">
<title>rr</title>
</g>
<!-- r&#45;&#45;rr -->
<!-- 2 -->
<g id="node3" class="node">
<title>2</title>
<text text-anchor="middle" x="158.5" y="-158.3" font-family="Times,serif" font-size="14.00">\(\n\)</text>
</g>
<!-- 1&#45;&#45;2 -->
<g id="edge3" class="edge">
<title>1&#45;&#45;2</title>
<path fill="none" stroke="black" d="M185.6,-215.7C180.02,-204.85 172.86,-190.92 167.3,-180.1"/>
</g>
<!-- v -->
<g id="node6" class="node">
<title>v</title>
<text text-anchor="middle" x="230.5" y="-158.3" font-family="Times,serif" font-size="14.00">\(\n\)</text>
</g>
<!-- 1&#45;&#45;v -->
<g id="edge6" class="edge">
<title>1&#45;&#45;v</title>
<path fill="none" stroke="black" d="M203.4,-215.7C208.98,-204.85 216.14,-190.92 221.7,-180.1"/>
</g>
<!-- 3 -->
<g id="node4" class="node">
<title>3</title>
<text text-anchor="middle" x="56.5" y="-86.3" font-family="Times,serif" font-size="14.00">\(\pointed{}\)</text>
</g>
<!-- 2&#45;&#45;3 -->
<g id="edge4" class="edge">
<title>2&#45;&#45;3</title>
<path fill="none" stroke="lightgreen" d="M133.55,-143.88C117.74,-133.03 97.37,-119.05 81.55,-108.19"/>
</g>
<!-- 4 -->
<g id="node5" class="node">
<title>4</title>
</g>
<!-- 2&#45;&#45;4 -->
<g id="edge5" class="edge">
<title>2&#45;&#45;4</title>
<path fill="none" stroke="lightgreen" d="M158.5,-143.7C158.5,-132.85 158.5,-118.92 158.5,-108.1"/>
</g>
<!-- vl -->
<g id="node7" class="node">
<title>vl</title>
<polygon fill="none" stroke="black" points="230.5,-108 203.5,-81 257.5,-81 230.5,-108"/>
</g>
<!-- v&#45;&#45;vl -->
<g id="edge7" class="edge">
<title>v&#45;&#45;vl:n</title>
<path fill="none" stroke="black" d="M230.5,-143.94C230.5,-128.45 230.5,-108 230.5,-108"/>
</g>
<!-- vr -->
<g id="node8" class="node">
<title>vr</title>
<polygon fill="none" stroke="black" points="302.5,-108 275.5,-81 329.5,-81 302.5,-108"/>
</g>
<!-- v&#45;&#45;vr -->
<g id="edge8" class="edge">
<title>v&#45;&#45;vr:n</title>
<path fill="none" stroke="black" d="M253.68,-143.94C274.73,-128.45 302.5,-108 302.5,-108"/>
</g>
<!-- 000 -->
<!-- vl&#45;&#45;000 -->
</g>
</svg>
