<?xml version="1.0" encoding="UTF-8" standalone="no"?>
<!DOCTYPE svg PUBLIC "-//W3C//DTD SVG 1.1//EN"
 "http://www.w3.org/Graphics/SVG/1.1/DTD/svg11.dtd">
<!-- Generated by graphviz version 2.47.1 (20210417.1919)
 -->
<!-- Pages: 1 -->
<svg width="200pt" height="288pt"
 viewBox="0.00 0.00 200.47 288.00" xmlns="http://www.w3.org/2000/svg" xmlns:xlink="http://www.w3.org/1999/xlink">
<g id="graph0" class="graph" transform="scale(0.87 0.87) rotate(0) translate(4 328)">
<polygon fill="white" stroke="transparent" points="-4,4 -4,-328 227.1,-328 227.1,4 -4,4"/>
<!-- r -->
<g id="node1" class="node">
<title>r</title>
</g>
<!-- 1 -->
<g id="node2" class="node">
<title>1</title>
<text text-anchor="middle" x="115.6" y="-230.3" font-family="Times,serif" font-size="14.00">\(\n\)</text>
</g>
<!-- r&#45;&#45;1 -->
<g id="edge2" class="edge">
<title>r&#45;&#45;1</title>
<path fill="none" stroke="black" stroke-dasharray="5,2" d="M142.7,-287.7C137.12,-276.85 129.95,-262.92 124.39,-252.1"/>
</g>
<!-- rr -->
<g id="node7" class="node">
<title>rr</title>
</g>
<!-- r&#45;&#45;rr -->
<!-- v -->
<g id="node3" class="node">
<title>v</title>
<text text-anchor="middle" x="64.6" y="-158.3" font-family="Times,serif" font-size="14.00">\(\n\)</text>
</g>
<!-- 1&#45;&#45;v -->
<g id="edge3" class="edge">
<title>1&#45;&#45;v</title>
<path fill="none" stroke="black" d="M102.99,-215.7C95.09,-204.85 84.94,-190.92 77.06,-180.1"/>
</g>
<!-- 2 -->
<g id="node6" class="node">
<title>2</title>
<text text-anchor="middle" x="166.6" y="-158.3" font-family="Times,serif" font-size="14.00">\(\pointed{}\)</text>
</g>
<!-- 1&#45;&#45;2 -->
<g id="edge6" class="edge">
<title>1&#45;&#45;2</title>
<path fill="none" stroke="lightgreen" d="M128.2,-215.7C136.11,-204.85 146.26,-190.92 154.14,-180.1"/>
</g>
<!-- vl -->
<g id="node4" class="node">
<title>vl</title>
<polygon fill="none" stroke="black" points="28.6,-108 1.6,-81 55.6,-81 28.6,-108"/>
</g>
<!-- v&#45;&#45;vl -->
<g id="edge4" class="edge">
<title>v&#45;&#45;vl:n</title>
<path fill="none" stroke="black" d="M53.01,-143.94C42.48,-128.45 28.6,-108 28.6,-108"/>
</g>
<!-- vr -->
<g id="node5" class="node">
<title>vr</title>
<polygon fill="none" stroke="black" points="100.6,-108 73.6,-81 127.6,-81 100.6,-108"/>
</g>
<!-- v&#45;&#45;vr -->
<g id="edge5" class="edge">
<title>v&#45;&#45;vr:n</title>
<path fill="none" stroke="black" d="M76.19,-143.94C86.71,-128.45 100.6,-108 100.6,-108"/>
</g>
<!-- 000 -->
<!-- vl&#45;&#45;000 -->
</g>
</svg>
