<?xml version="1.0" encoding="UTF-8" standalone="no"?>
<!DOCTYPE svg PUBLIC "-//W3C//DTD SVG 1.1//EN"
 "http://www.w3.org/Graphics/SVG/1.1/DTD/svg11.dtd">
<!-- Generated by graphviz version 2.47.1 (20210417.1919)
 -->
<!-- Pages: 1 -->
<svg width="217pt" height="239pt"
 viewBox="0.00 0.00 216.50 239.00" xmlns="http://www.w3.org/2000/svg" xmlns:xlink="http://www.w3.org/1999/xlink">
<g id="graph0" class="graph" transform="scale(1 1) rotate(0) translate(4 235)">
<polygon fill="white" stroke="transparent" points="-4,4 -4,-235 212.5,-235 212.5,4 -4,4"/>
<!-- 0 -->
<g id="node1" class="node">
<title>0</title>
<text text-anchor="middle" x="78" y="-219.8" font-family="Times,serif" font-size="14.00">\(s\)</text>
</g>
<!-- 1 -->
<g id="node2" class="node">
<title>1</title>
</g>
<!-- 0&#45;&#45;1 -->
<g id="edge1" class="edge">
<title>0&#45;&#45;1</title>
<path fill="none" stroke="lightgreen" d="M74.67,-215.67C70.48,-207.07 63.12,-191.96 57.35,-180.13"/>
</g>
<!-- 2 -->
<g id="node3" class="node">
<title>2</title>
<text text-anchor="middle" x="107" y="-158.3" font-family="Times,serif" font-size="14.00">\(l\)</text>
</g>
<!-- 0&#45;&#45;2 -->
<g id="edge2" class="edge">
<title>0&#45;&#45;2</title>
<path fill="none" stroke="black" d="M81.33,-215.67C86.92,-204.2 98.14,-181.17 103.71,-169.75"/>
</g>
<!-- 3 -->
<g id="node4" class="node">
<title>3</title>
<text text-anchor="middle" x="63" y="-86.3" font-family="Times,serif" font-size="14.00">\(o\)</text>
</g>
<!-- 2&#45;&#45;3 -->
<g id="edge3" class="edge">
<title>2&#45;&#45;3</title>
<path fill="none" stroke="black" d="M102.78,-154.29C94.35,-140.87 75.51,-110.9 67.14,-97.59"/>
</g>
<!-- 6 -->
<g id="node7" class="node">
<title>6</title>
<text text-anchor="middle" x="152" y="-86.3" font-family="Times,serif" font-size="14.00">\(\pointed{}\)</text>
</g>
<!-- 2&#45;&#45;6 -->
<g id="edge6" class="edge">
<title>2&#45;&#45;6</title>
<path fill="none" stroke="lightgreen" d="M111.31,-154.29C118.09,-143.75 131.44,-122.99 141,-108.12"/>
</g>
<!-- 4 -->
<g id="node5" class="node">
<title>4</title>
</g>
<!-- 3&#45;&#45;4 -->
<g id="edge4" class="edge">
<title>3&#45;&#45;4</title>
<path fill="none" stroke="lightgreen" d="M59.55,-82.29C54.13,-71.75 43.45,-50.99 35.8,-36.12"/>
</g>
<!-- 5 -->
<g id="node6" class="node">
<title>5</title>
</g>
<!-- 3&#45;&#45;5 -->
<g id="edge5" class="edge">
<title>3&#45;&#45;5</title>
<path fill="none" stroke="lightgreen" d="M66.45,-82.29C71.87,-71.75 82.55,-50.99 90.2,-36.12"/>
</g>
</g>
</svg>
