<?xml version="1.0" encoding="UTF-8" standalone="no"?>
<!DOCTYPE svg PUBLIC "-//W3C//DTD SVG 1.1//EN"
 "http://www.w3.org/Graphics/SVG/1.1/DTD/svg11.dtd">
<!-- Generated by graphviz version 2.47.1 (20210417.1919)
 -->
<!-- Pages: 1 -->
<svg width="202pt" height="239pt"
 viewBox="0.00 0.00 201.50 239.00" xmlns="http://www.w3.org/2000/svg" xmlns:xlink="http://www.w3.org/1999/xlink">
<g id="graph0" class="graph" transform="scale(1 1) rotate(0) translate(4 235)">
<!-- 0 -->
<g id="node1" class="node">
<title>0</title>
<text text-anchor="middle" x="85" y="-219.8" font-family="Times,serif" font-size="14.00">\(l\)</text>
</g>
<!-- 1 -->
<g id="node2" class="node">
<title>1</title>
<text text-anchor="middle" x="56" y="-158.3" font-family="Times,serif" font-size="14.00">\(s\)</text>
</g>
<!-- 0&#45;&#45;1 -->
<g id="edge1" class="edge">
<title>0&#45;&#45;1</title>
<path fill="none" stroke="black" d="M81.67,-215.67C76.08,-204.2 64.86,-181.17 59.29,-169.75"/>
</g>
<!-- 6 -->
<g id="node7" class="node">
<title>6</title>
</g>
<!-- 0&#45;&#45;6 -->
<g id="edge6" class="edge">
<title>0&#45;&#45;6</title>
<path fill="none" stroke="lightgreen" d="M88.44,-215.67C92.78,-207.07 100.4,-191.96 106.36,-180.13"/>
</g>
<!-- 2 -->
<g id="node3" class="node">
<title>2</title>
</g>
<!-- 1&#45;&#45;2 -->
<g id="edge2" class="edge">
<title>1&#45;&#45;2</title>
<path fill="none" stroke="lightgreen" d="M53.22,-154.29C48.85,-143.75 40.25,-122.99 34.09,-108.12"/>
</g>
<!-- 3 -->
<g id="node4" class="node">
<title>3</title>
<text text-anchor="middle" x="86" y="-86.3" font-family="Times,serif" font-size="14.00">\(o\)</text>
</g>
<!-- 1&#45;&#45;3 -->
<g id="edge3" class="edge">
<title>1&#45;&#45;3</title>
<path fill="none" stroke="black" d="M58.88,-154.29C64.63,-140.87 77.47,-110.9 83.18,-97.59"/>
</g>
<!-- 4 -->
<g id="node5" class="node">
<title>4</title>
</g>
<!-- 3&#45;&#45;4 -->
<g id="edge4" class="edge">
<title>3&#45;&#45;4</title>
<path fill="none" stroke="lightgreen" d="M81.11,-82.29C73.43,-71.75 58.3,-50.99 47.47,-36.12"/>
</g>
<!-- 5 -->
<g id="node6" class="node">
<title>5</title>
<text text-anchor="middle" x="137" y="-14.3" font-family="Times,serif" font-size="14.00">\(\pointed{}\)</text>
</g>
<!-- 3&#45;&#45;5 -->
<g id="edge5" class="edge">
<title>3&#45;&#45;5</title>
<path fill="none" stroke="lightgreen" d="M90.89,-82.29C98.57,-71.75 113.7,-50.99 124.53,-36.12"/>
</g>
</g>
</svg>
