<?xml version="1.0" encoding="UTF-8" standalone="no"?>
<!DOCTYPE svg PUBLIC "-//W3C//DTD SVG 1.1//EN"
 "http://www.w3.org/Graphics/SVG/1.1/DTD/svg11.dtd">
<!-- Generated by graphviz version 2.47.1 (20210417.1919)
 -->
<!-- Pages: 1 -->
<svg width="225pt" height="288pt"
 viewBox="0.00 0.00 225.15 288.00" xmlns="http://www.w3.org/2000/svg" xmlns:xlink="http://www.w3.org/1999/xlink">
<g id="graph0" class="graph" transform="scale(0.8 0.8) rotate(0) translate(4 358)">
<polygon fill="white" stroke="transparent" points="-4,4 -4,-358 279,-358 279,4 -4,4"/>
<!-- 10 -->
<g id="node1" class="node">
<title>10</title>
</g>
<!-- 0 -->
<g id="node2" class="node">
<title>0</title>
<text text-anchor="middle" x="188" y="-342.8" font-family="Times,serif" font-size="14.00">\(l\)</text>
</g>
<!-- 1 -->
<g id="node3" class="node">
<title>1</title>
<text text-anchor="middle" x="159" y="-281.3" font-family="Times,serif" font-size="14.00">\(a\)</text>
</g>
<!-- 0&#45;&gt;1 -->
<g id="edge1" class="edge">
<title>0&#45;&gt;1</title>
<path fill="none" stroke="black" d="M184.67,-338.67C179.08,-327.2 167.86,-304.17 162.29,-292.75"/>
</g>
<!-- 00 -->
<g id="node9" class="node">
<title>00</title>
</g>
<!-- 0&#45;&gt;00 -->
<g id="edge2" class="edge">
<title>0&#45;&gt;00</title>
<path fill="none" stroke="lightgreen" d="M191.44,-338.67C195.78,-330.07 203.4,-314.96 209.36,-303.13"/>
</g>
<!-- 2 -->
<g id="node4" class="node">
<title>2</title>
<text text-anchor="middle" x="130" y="-219.8" font-family="Times,serif" font-size="14.00">\(l\)</text>
</g>
<!-- 1&#45;&gt;2 -->
<g id="edge3" class="edge">
<title>1&#45;&gt;2</title>
<path fill="none" stroke="black" d="M155.67,-277.17C150.08,-265.7 138.86,-242.67 133.29,-231.25"/>
</g>
<!-- 4 -->
<g id="node6" class="node">
<title>4</title>
<text text-anchor="middle" x="189" y="-219.8" font-family="Times,serif" font-size="14.00">\(l\)</text>
</g>
<!-- 1&#45;&gt;4 -->
<g id="edge6" class="edge">
<title>1&#45;&gt;4</title>
<path fill="none" stroke="black" d="M162.44,-277.17C168.23,-265.7 179.84,-242.67 185.6,-231.25"/>
</g>
<!-- 3 -->
<g id="node5" class="node">
<title>3</title>
<text text-anchor="middle" x="71" y="-158.3" font-family="Times,serif" font-size="14.00">\(s\)</text>
</g>
<!-- 2&#45;&gt;3 -->
<g id="edge4" class="edge">
<title>2&#45;&gt;3</title>
<path fill="none" stroke="black" d="M123.23,-215.67C111.85,-204.2 89.02,-181.17 77.69,-169.75"/>
</g>
<!-- 01 -->
<g id="node10" class="node">
<title>01</title>
</g>
<!-- 2&#45;&gt;01 -->
<g id="edge5" class="edge">
<title>2&#45;&gt;01</title>
<path fill="none" stroke="lightgreen" d="M130,-215.67C130,-207.07 130,-191.96 130,-180.13"/>
</g>
<!-- 3&#45;&gt;10 -->
<g id="edge10" class="edge">
<title>3&#45;&gt;10</title>
<path fill="none" stroke="lightgreen" d="M66.78,-154.29C60.16,-143.75 47.11,-122.99 37.76,-108.12"/>
</g>
<!-- 3&#45;&gt;0 -->
<g id="edge11" class="edge">
<title>3&#45;&gt;0</title>
<path fill="none" stroke="black" stroke-dasharray="5,2" d="M78.65,-169.69C82.94,-173.15 88.5,-177.23 94,-180 142.57,-204.52 165.62,-185.98 211,-216 235.73,-232.36 243.83,-239.15 254,-267 259.49,-282.03 261.66,-288.95 254,-303 244.74,-319.98 225.46,-331.19 210.12,-337.82"/>
<polygon fill="black" stroke="black" points="208.77,-334.59 200.75,-341.52 211.34,-341.1 208.77,-334.59"/>
</g>
<!-- 6 -->
<g id="node8" class="node">
<title>6</title>
<text text-anchor="middle" x="86" y="-86.3" font-family="Times,serif" font-size="14.00">\(o\)</text>
</g>
<!-- 3&#45;&gt;6 -->
<g id="edge9" class="edge">
<title>3&#45;&gt;6</title>
<path fill="none" stroke="black" d="M72.44,-154.29C75.31,-140.87 81.74,-110.9 84.59,-97.59"/>
</g>
<!-- 5 -->
<g id="node7" class="node">
<title>5</title>
<text text-anchor="middle" x="189" y="-158.3" font-family="Times,serif" font-size="14.00">\(o\)</text>
</g>
<!-- 4&#45;&gt;5 -->
<g id="edge7" class="edge">
<title>4&#45;&gt;5</title>
<path fill="none" stroke="black" d="M189,-215.67C189,-204.2 189,-181.17 189,-169.75"/>
</g>
<!-- 02 -->
<g id="node11" class="node">
<title>02</title>
</g>
<!-- 4&#45;&gt;02 -->
<g id="edge8" class="edge">
<title>4&#45;&gt;02</title>
<path fill="none" stroke="lightgreen" d="M195.77,-215.67C204.3,-207.07 219.28,-191.96 231.02,-180.13"/>
</g>
<!-- 20 -->
<g id="node12" class="node">
<title>20</title>
</g>
<!-- 5&#45;&gt;20 -->
<g id="edge12" class="edge">
<title>5&#45;&gt;20</title>
<path fill="none" stroke="lightgreen" d="M187.56,-154.29C185.3,-143.75 180.85,-122.99 177.67,-108.12"/>
</g>
<!-- 21 -->
<g id="node13" class="node">
<title>21</title>
</g>
<!-- 5&#45;&gt;21 -->
<g id="edge13" class="edge">
<title>5&#45;&gt;21</title>
<path fill="none" stroke="lightgreen" d="M194.47,-154.29C203.05,-143.75 219.95,-122.99 232.06,-108.12"/>
</g>
<!-- 22 -->
<g id="node14" class="node">
<title>22</title>
</g>
<!-- 6&#45;&gt;22 -->
<g id="edge14" class="edge">
<title>6&#45;&gt;22</title>
<path fill="none" stroke="lightgreen" d="M82.55,-82.29C77.13,-71.75 66.45,-50.99 58.8,-36.12"/>
</g>
<!-- 23 -->
<g id="node15" class="node">
<title>23</title>
</g>
<!-- 6&#45;&gt;23 -->
<g id="edge15" class="edge">
<title>6&#45;&gt;23</title>
<path fill="none" stroke="lightgreen" d="M89.45,-82.29C94.87,-71.75 105.55,-50.99 113.2,-36.12"/>
</g>
</g>
</svg>
