<?xml version="1.0" encoding="UTF-8" standalone="no"?>
<!DOCTYPE svg PUBLIC "-//W3C//DTD SVG 1.1//EN"
 "http://www.w3.org/Graphics/SVG/1.1/DTD/svg11.dtd">
<!-- Generated by graphviz version 2.47.1 (20210417.1919)
 -->
<!-- Pages: 1 -->
<svg width="157pt" height="239pt"
 viewBox="0.00 0.00 157.00 239.00" xmlns="http://www.w3.org/2000/svg" xmlns:xlink="http://www.w3.org/1999/xlink">
<g id="graph0" class="graph" transform="scale(1 1) rotate(0) translate(4 235)">
<polygon fill="white" stroke="transparent" points="-4,4 -4,-235 153,-235 153,4 -4,4"/>
<!-- l0 -->
<g id="node1" class="node">
<title>l0</title>
</g>
<!-- 0 -->
<g id="node2" class="node">
<title>0</title>
<text text-anchor="middle" x="63" y="-219.8" font-family="Times,serif" font-size="14.00">\(s\)</text>
</g>
<!-- 0&#45;&gt;l0 -->
<g id="edge1" class="edge">
<title>0&#45;&gt;l0</title>
<path fill="none" stroke="lightgreen" d="M59.67,-215.67C55.48,-207.07 48.12,-191.96 42.35,-180.13"/>
</g>
<!-- 1 -->
<g id="node3" class="node">
<title>1</title>
<text text-anchor="middle" x="92" y="-158.3" font-family="Times,serif" font-size="14.00">\(l\)</text>
</g>
<!-- 0&#45;&gt;1 -->
<g id="edge2" class="edge">
<title>0&#45;&gt;1</title>
<path fill="none" stroke="black" d="M66.33,-215.67C71.92,-204.2 83.14,-181.17 88.71,-169.75"/>
</g>
<!-- 2 -->
<g id="node4" class="node">
<title>2</title>
<text text-anchor="middle" x="63" y="-86.3" font-family="Times,serif" font-size="14.00">\(o\)</text>
</g>
<!-- 1&#45;&gt;2 -->
<g id="edge3" class="edge">
<title>1&#45;&gt;2</title>
<path fill="none" stroke="black" d="M89.22,-154.29C83.66,-140.87 71.25,-110.9 65.73,-97.59"/>
</g>
<!-- r0 -->
<g id="node5" class="node">
<title>r0</title>
</g>
<!-- 1&#45;&gt;r0 -->
<g id="edge4" class="edge">
<title>1&#45;&gt;r0</title>
<path fill="none" stroke="lightgreen" d="M94.88,-154.29C99.39,-143.75 108.29,-122.99 114.66,-108.12"/>
</g>
<!-- f0 -->
<g id="node6" class="node">
<title>f0</title>
</g>
<!-- 2&#45;&gt;f0 -->
<g id="edge5" class="edge">
<title>2&#45;&gt;f0</title>
<path fill="none" stroke="lightgreen" d="M59.55,-82.29C54.13,-71.75 43.45,-50.99 35.8,-36.12"/>
</g>
<!-- f1 -->
<g id="node7" class="node">
<title>f1</title>
</g>
<!-- 2&#45;&gt;f1 -->
<g id="edge6" class="edge">
<title>2&#45;&gt;f1</title>
<path fill="none" stroke="lightgreen" d="M66.45,-82.29C71.87,-71.75 82.55,-50.99 90.2,-36.12"/>
</g>
</g>
</svg>
