<?xml version="1.0" encoding="UTF-8" standalone="no"?>
<!DOCTYPE svg PUBLIC "-//W3C//DTD SVG 1.1//EN"
 "http://www.w3.org/Graphics/SVG/1.1/DTD/svg11.dtd">
<!-- Generated by graphviz version 2.47.1 (20210417.1919)
 -->
<!-- Pages: 1 -->
<svg width="234pt" height="288pt"
 viewBox="0.00 0.00 233.90 288.00" xmlns="http://www.w3.org/2000/svg" xmlns:xlink="http://www.w3.org/1999/xlink">
<g id="graph0" class="graph" transform="scale(0.8 0.8) rotate(0) translate(4 358)">
<polygon fill="white" stroke="transparent" points="-4,4 -4,-358 290,-358 290,4 -4,4"/>
<!-- 10 -->
<g id="node1" class="node">
<title>10</title>
</g>
<!-- 0 -->
<g id="node2" class="node">
<title>0</title>
<text text-anchor="middle" x="197" y="-342.8" font-family="Times,serif" font-size="14.00">\(\n\)</text>
</g>
<!-- 1 -->
<g id="node3" class="node">
<title>1</title>
<text text-anchor="middle" x="166" y="-281.3" font-family="Times,serif" font-size="14.00">\(\n\)</text>
</g>
<!-- 0&#45;&gt;1 -->
<g id="edge1" class="edge">
<title>0&#45;&gt;1</title>
<path fill="none" stroke="black" d="M193.44,-338.67C187.46,-327.2 175.47,-304.17 169.51,-292.75"/>
</g>
<!-- 00 -->
<g id="node9" class="node">
<title>00</title>
</g>
<!-- 0&#45;&gt;00 -->
<g id="edge2" class="edge">
<title>0&#45;&gt;00</title>
<path fill="none" stroke="lightgreen" d="M200.56,-338.67C205.04,-330.07 212.91,-314.96 219.08,-303.13"/>
</g>
<!-- 2 -->
<g id="node4" class="node">
<title>2</title>
<text text-anchor="middle" x="135" y="-219.8" font-family="Times,serif" font-size="14.00">\(\n\)</text>
</g>
<!-- 1&#45;&gt;2 -->
<g id="edge3" class="edge">
<title>1&#45;&gt;2</title>
<path fill="none" stroke="black" d="M162.44,-277.17C156.46,-265.7 144.47,-242.67 138.51,-231.25"/>
</g>
<!-- 4 -->
<g id="node6" class="node">
<title>4</title>
<text text-anchor="middle" x="197" y="-219.8" font-family="Times,serif" font-size="14.00">\(\n\)</text>
</g>
<!-- 1&#45;&gt;4 -->
<g id="edge6" class="edge">
<title>1&#45;&gt;4</title>
<path fill="none" stroke="black" d="M169.56,-277.17C175.54,-265.7 187.53,-242.67 193.49,-231.25"/>
</g>
<!-- 3 -->
<g id="node5" class="node">
<title>3</title>
<text text-anchor="middle" x="73" y="-158.3" font-family="Times,serif" font-size="14.00">\(\n\)</text>
</g>
<!-- 2&#45;&gt;3 -->
<g id="edge4" class="edge">
<title>2&#45;&gt;3</title>
<path fill="none" stroke="black" d="M127.89,-215.67C115.93,-204.2 91.93,-181.17 80.03,-169.75"/>
</g>
<!-- 01 -->
<g id="node10" class="node">
<title>01</title>
</g>
<!-- 2&#45;&gt;01 -->
<g id="edge5" class="edge">
<title>2&#45;&gt;01</title>
<path fill="none" stroke="lightgreen" d="M135,-215.67C135,-207.07 135,-191.96 135,-180.13"/>
</g>
<!-- 3&#45;&gt;10 -->
<g id="edge10" class="edge">
<title>3&#45;&gt;10</title>
<path fill="none" stroke="lightgreen" d="M68.59,-154.29C61.66,-143.75 48.02,-122.99 38.25,-108.12"/>
</g>
<!-- 3&#45;&gt;0 -->
<g id="edge11" class="edge">
<title>3&#45;&gt;0</title>
<path fill="none" stroke="black" stroke-dasharray="5,2" d="M81.76,-169.67C86.63,-173.13 92.92,-177.21 99,-180 174.33,-214.62 236.47,-188.8 264,-267 269.31,-282.09 271.71,-288.98 264,-303 255.34,-318.74 238.12,-329.48 223.3,-336.22"/>
<polygon fill="black" stroke="black" points="221.91,-333.01 214.02,-340.08 224.6,-339.47 221.91,-333.01"/>
</g>
<!-- 6 -->
<g id="node8" class="node">
<title>6</title>
<text text-anchor="middle" x="89" y="-86.3" font-family="Times,serif" font-size="14.00">\(\n\)</text>
</g>
<!-- 3&#45;&gt;6 -->
<g id="edge9" class="edge">
<title>3&#45;&gt;6</title>
<path fill="none" stroke="black" d="M74.53,-154.29C77.6,-140.87 84.45,-110.9 87.49,-97.59"/>
</g>
<!-- 5 -->
<g id="node7" class="node">
<title>5</title>
<text text-anchor="middle" x="197" y="-158.3" font-family="Times,serif" font-size="14.00">\(\n\)</text>
</g>
<!-- 4&#45;&gt;5 -->
<g id="edge7" class="edge">
<title>4&#45;&gt;5</title>
<path fill="none" stroke="black" d="M197,-215.67C197,-204.2 197,-181.17 197,-169.75"/>
</g>
<!-- 02 -->
<g id="node11" class="node">
<title>02</title>
</g>
<!-- 4&#45;&gt;02 -->
<g id="edge8" class="edge">
<title>4&#45;&gt;02</title>
<path fill="none" stroke="lightgreen" d="M204.11,-215.67C213.08,-207.07 228.82,-191.96 241.15,-180.13"/>
</g>
<!-- 20 -->
<g id="node12" class="node">
<title>20</title>
</g>
<!-- 5&#45;&gt;20 -->
<g id="edge12" class="edge">
<title>5&#45;&gt;20</title>
<path fill="none" stroke="lightgreen" d="M195.56,-154.29C193.3,-143.75 188.85,-122.99 185.67,-108.12"/>
</g>
<!-- 21 -->
<g id="node13" class="node">
<title>21</title>
</g>
<!-- 5&#45;&gt;21 -->
<g id="edge13" class="edge">
<title>5&#45;&gt;21</title>
<path fill="none" stroke="lightgreen" d="M202.47,-154.29C211.05,-143.75 227.95,-122.99 240.06,-108.12"/>
</g>
<!-- 22 -->
<g id="node14" class="node">
<title>22</title>
</g>
<!-- 6&#45;&gt;22 -->
<g id="edge14" class="edge">
<title>6&#45;&gt;22</title>
<path fill="none" stroke="lightgreen" d="M85.55,-82.29C80.13,-71.75 69.45,-50.99 61.8,-36.12"/>
</g>
<!-- 23 -->
<g id="node15" class="node">
<title>23</title>
</g>
<!-- 6&#45;&gt;23 -->
<g id="edge15" class="edge">
<title>6&#45;&gt;23</title>
<path fill="none" stroke="lightgreen" d="M92.45,-82.29C97.87,-71.75 108.55,-50.99 116.2,-36.12"/>
</g>
</g>
</svg>
