<?xml version="1.0" encoding="UTF-8" standalone="no"?>
<!DOCTYPE svg PUBLIC "-//W3C//DTD SVG 1.1//EN"
 "http://www.w3.org/Graphics/SVG/1.1/DTD/svg11.dtd">
<!-- Generated by graphviz version 2.47.1 (20210417.1919)
 -->
<!-- Pages: 1 -->
<svg width="223pt" height="176pt"
 viewBox="0.00 0.00 222.82 176.00" xmlns="http://www.w3.org/2000/svg" xmlns:xlink="http://www.w3.org/1999/xlink">
<g id="graph0" class="graph" transform="scale(1 1) rotate(0) translate(4 172)">
<polygon fill="white" stroke="transparent" points="-4,4 -4,-172 218.82,-172 218.82,4 -4,4"/>
<!-- 0 -->
<g id="node1" class="node">
<title>0</title>
<text text-anchor="middle" x="94" y="-156.8" font-family="Times,serif" font-size="14.00">\(\lambda x\)</text>
</g>
<!-- 1 -->
<g id="node2" class="node">
<title>1</title>
<text text-anchor="middle" x="94" y="-105.8" font-family="Times,serif" font-size="14.00">\(\text{apply}\)</text>
</g>
<!-- 0&#45;&gt;1 -->
<g id="edge1" class="edge">
<title>0&#45;&gt;1</title>
<path fill="none" stroke="black" d="M94,-152.69C94,-143.33 94,-126.59 94,-117.26"/>
</g>
<!-- 2 -->
<g id="node3" class="node">
<title>2</title>
<text text-anchor="middle" x="45" y="-54.8" font-family="Times,serif" font-size="14.00">\(\lambda y\)</text>
</g>
<!-- 1&#45;&gt;2 -->
<g id="edge2" class="edge">
<title>1&#45;&gt;2</title>
<path fill="none" stroke="black" d="M87.19,-101.69C77.83,-92.33 61.09,-75.59 51.76,-66.26"/>
</g>
<!-- 4 -->
<g id="node5" class="node">
<title>4</title>
<text text-anchor="middle" x="153" y="-54.8" font-family="Times,serif" font-size="14.00">\(\lambda y\)</text>
</g>
<!-- 1&#45;&gt;4 -->
<g id="edge4" class="edge">
<title>1&#45;&gt;4</title>
<path fill="none" stroke="black" d="M102.2,-101.69C113.48,-92.33 133.63,-75.59 144.87,-66.26"/>
</g>
<!-- 3 -->
<g id="node4" class="node">
<title>3</title>
<text text-anchor="middle" x="45" y="-3.8" font-family="Times,serif" font-size="14.00">\(x\)</text>
</g>
<!-- 2&#45;&gt;3 -->
<g id="edge3" class="edge">
<title>2&#45;&gt;3</title>
<path fill="none" stroke="black" d="M45,-50.69C45,-41.33 45,-24.59 45,-15.26"/>
</g>
<!-- 3&#45;&gt;0 -->
<g id="edge6" class="edge">
<title>3&#45;&gt;0</title>
<path fill="none" stroke="black" stroke-dasharray="5,2" d="M59.03,-10.02C94.96,-14.22 188.71,-27.29 207,-51 238.21,-91.45 162.76,-130.97 120.38,-149.13"/>
<polygon fill="black" stroke="black" points="119.04,-145.9 111.15,-152.98 121.73,-152.36 119.04,-145.9"/>
</g>
<!-- 5 -->
<g id="node6" class="node">
<title>5</title>
<text text-anchor="middle" x="153" y="-3.8" font-family="Times,serif" font-size="14.00">\(y\)</text>
</g>
<!-- 4&#45;&gt;5 -->
<g id="edge5" class="edge">
<title>4&#45;&gt;5</title>
<path fill="none" stroke="black" d="M148.16,-50.69C145.61,-41.33 145.62,-24.59 148.17,-15.26"/>
</g>
<!-- 5&#45;&gt;4 -->
<g id="edge7" class="edge">
<title>5&#45;&gt;4</title>
<path fill="none" stroke="black" stroke-dasharray="5,2" d="M157.83,-15.26C159.63,-21.82 160.16,-32.04 159.44,-40.79"/>
<polygon fill="black" stroke="black" points="155.98,-40.26 157.84,-50.69 162.89,-41.37 155.98,-40.26"/>
</g>
</g>
</svg>
